/* XPM */
static char *_88fc2510eef4b7bc7c7938ae59fd95fjguHGrwAfGLa0JTI[] = {
/* columns rows colors chars-per-pixel */
"64 64 204 2 ",
"   c None",
".  c #130C23",
"X  c #131329",
"o  c #14182E",
"O  c #141A30",
"+  c #152237",
"@  c #152339",
"#  c #16293E",
"$  c #172E43",
"%  c #173146",
"&  c #16364B",
"*  c #18364A",
"=  c #16394E",
"-  c #183A4E",
";  c #163E53",
":  c #193F53",
">  c #174156",
",  c #194356",
"<  c #16455A",
"1  c #1A465A",
"2  c #1A4A5D",
"3  c #164A5F",
"4  c #164E63",
"5  c #1B5164",
"6  c #175569",
"7  c #1B5769",
"8  c #1C596B",
"9  c #17566A",
"0  c #1B5E71",
"q  c #1D6275",
"w  c #1C6679",
"e  c #1E6B7C",
"r  c #176377",
"t  c #246375",
"y  c #1C6E81",
"u  c #1F7181",
"i  c #1C7489",
"p  c #1E7A8B",
"a  c #1C7C92",
"s  c #226E80",
"d  c #207383",
"f  c #207788",
"g  c #217C8C",
"h  c #2A7685",
"j  c #1D8294",
"k  c #1E899B",
"l  c #1C8799",
"z  c #228494",
"x  c #228897",
"c  c #228A9A",
"v  c #2E8E9C",
"b  c #328592",
"n  c #23919F",
"m  c #1D87A0",
"M  c #1E8FA6",
"N  c #1E97AA",
"B  c #1D96B1",
"V  c #1C9DBC",
"C  c #2394A4",
"Z  c #2499A7",
"A  c #2296A8",
"S  c #259EAC",
"D  c #2999A8",
"F  c #3B98A3",
"G  c #219CB1",
"H  c #1FA1B1",
"J  c #25A1AF",
"K  c #24A2B1",
"L  c #20A1B9",
"P  c #24ABBB",
"I  c #2CADBC",
"U  c #33A4B1",
"Y  c #44ACB5",
"T  c #52B0B6",
"R  c #1DA5C3",
"E  c #1CA9CA",
"W  c #1AACD2",
"Q  c #18AFDA",
"!  c #1EB4D5",
"~  c #19B3DD",
"^  c #23AFC4",
"/  c #26B4C3",
"(  c #27B8C6",
")  c #21B2CB",
"_  c #26BBCB",
"`  c #29BBC9",
"'  c #37B8C4",
"]  c #008EE8",
"[  c #0093E9",
"{  c #029BEA",
"}  c #0C9AE9",
"|  c #0A97E9",
" . c #139CE9",
".. c #1A9DE8",
"X. c #06A2EC",
"o. c #09A5EB",
"O. c #0CACED",
"+. c #10AEEB",
"@. c #1AA5EA",
"#. c #14B1E2",
"$. c #17B9E6",
"%. c #1BBEE4",
"&. c #13B5EB",
"*. c #17BEEE",
"=. c #1CB4EF",
"-. c #05AAF0",
";. c #0BADF0",
":. c #0BB7F5",
">. c #0EB8F4",
",. c #11B7F1",
"<. c #10B9F4",
"1. c #1FBEF2",
"2. c #24A3E9",
"3. c #2AA8E9",
"4. c #32A7E8",
"5. c #3BABE8",
"6. c #2CB7EE",
"7. c #3DB0E9",
"8. c #51BBC1",
"9. c #44B3E9",
"0. c #41BCEC",
"q. c #50B4E8",
"w. c #5ABAE9",
"e. c #41ACE8",
"r. c #63BBE7",
"t. c #24C1D5",
"y. c #28C6D5",
"u. c #22C2DC",
"i. c #27C9DA",
"p. c #29CDDB",
"a. c #36CCD8",
"s. c #1FC1E0",
"d. c #1BC6EE",
"f. c #1FCCEC",
"g. c #16C4F5",
"h. c #1CCDF6",
"j. c #14C5F9",
"k. c #1ACEF9",
"l. c #19CAF8",
"z. c #1BD2FB",
"x. c #1ED9FD",
"c. c #17D0FC",
"v. c #26CEE3",
"b. c #23CFE9",
"n. c #28D4E5",
"m. c #26D7EC",
"M. c #29D7E8",
"N. c #2ADBEB",
"B. c #31DEEB",
"V. c #38D7E3",
"C. c #29C9F5",
"Z. c #3FCDF3",
"A. c #22D5F3",
"S. c #26DCF4",
"D. c #29DDF2",
"F. c #20D7F9",
"G. c #22DCFB",
"H. c #2DDAF9",
"J. c #3BD9F8",
"K. c #3EE1EC",
"L. c #27E1F6",
"P. c #24E0FB",
"I. c #2EE1F5",
"U. c #38E7F7",
"Y. c #4FCCD3",
"T. c #63C6C9",
"R. c #71D6D5",
"E. c #59C3EB",
"W. c #40C4F0",
"Q. c #57CEF0",
"!. c #50DAF6",
"~. c #73C6E9",
"^. c #60DDE0",
"/. c #73D1EC",
"(. c #6BDCF3",
"). c #69C0E8",
"_. c #4FE2E9",
"`. c #4EECF4",
"'. c #47EBFB",
"]. c #59E8FA",
"[. c #56F2FD",
"{. c #78EAE8",
"}. c #67EEFB",
"|. c #65F2F8",
" X c #79F4F7",
".X c #6FE8F1",
"XX c #86DFD9",
"oX c #81E1DC",
"OX c #83CBE8",
"+X c #8CD6EA",
"@X c #97D4E8",
"#X c #A3DCE8",
"$X c #98F2EA",
"%X c #89E9F2",
"&X c #8CF6F4",
"*X c #95EDEB",
"=X c #A4E5E9",
"-X c #B5E9EA",
";X c #A7F3EE",
":X c #B3F5EB",
">X c #BEF4EA",
",X c #A3F6F0",
"<X c #C3F3E9",
"1X c #C0EBE9",
/* pixels */
"                                      . . . . . . . . . . . . . . . . . . . . . . . . . .                                       ",
"                                    . . . . . . . . . . . . . . . . . . . . . . . . . . . .                                     ",
"                                    X X X X X X X X X X X X X X X X X X X X X X X X X X X X                                     ",
"                                    o o O O O O O O O o O O O o o O o O O O O o O O O o O O                                     ",
"                                    @ + @ @ @ @ @ @ @ @ @ @ @ @ @ @ @ @ @ @ @ @ @ @ @ @ @ +                                     ",
"                                    % % % % % # % % % % % % % % % % % % % % % % % $ $ % % $                                     ",
"                                  & = > > > > > > > < > 1 > , , , 1 , , , , < , , , , : : - *                                   ",
"                                % > < 3 4 4 9 r 9 8 8 9 8 8 8 8 8 8 8 8 8 8 8 8 8 7 5 5 2 1 : *                                 ",
"                              $ = < 4 0 r r r r y y y u u e u s e e e f e e f e e e e t 8 5 2 - $                               ",
"                          X + % > 4 0 r y p l l l l l l k k x x c c c c c c c c n z z e e q 5 > % + o                           ",
"                        . o @ & < 6 r p l l N H H H H H K J J S J J J K J J K H J Z n x f t 7 1 * @ o .                         ",
"                      . X O # = 2 r e z M H P P ) _ ( _ _ ( ( / I ( ` ` t.I t.( I I J n z d 8 4 - # O X .                       ",
"                    . X O + $ ; 5 t z n J P y.y.i.p.p.p.p.p.p.p.p.p.p.p.p.n.p.i.p.y./ H n p w 5 : $ + o X .                     ",
"                  o o O + $ & 1 8 e z v I y.a.V.N.B.B.B.N.N.N.M.M.M.N.M.N.N.N.M.p.y._ P N j y 8 1 - # @ O o o                   ",
"                  + @ # $ - , 5 e b v U I Y.K.K.U.U.U.U.I.I.D.S.D.S.S.D.L.L.L.L.N.n.t.P B k i q 5 : - $ # @ +                   ",
"                $ $ * - : 1 5 t e b F I Y.Y._.`.`.'.'.U.U.U.I.H.L.S.L.x.P.P.P.S.m.b.u.) H N a y 0 5 1 : - * % $                 ",
"              & = > < < 4 9 t e b F Y T T.^.|.|.}.[.[.'.U.U.H.G.x.x.x.c.x.x.x.x.h.f.s.! H B m a y 0 0 5 2 1 > - *               ",
"            & ; < 3 4 r e e b b F T T T.R.{.{.{. X}.}.[.'.J.H.F.f.k.h.c.c.c.k.k.h.d.%.! W V B m a f y w 0 8 5 1 > *             ",
"  . X O + $ = < 4 r r e j z v F Y T T.XXR.$X&X&X&X X}.}.!.J.C.C.g.g.j.j.j.j.j.j.g.d.$.Q W E H V M m a a u e 8 7 1 - $ @ O X .   ",
". . X O + $ ; 4 r r p l c J U U T T.R.XX$X$X;X,X,X%X.X(.!.Z.6.1.*.>.:.:.:.:.>.>.,.&.O.#.Q W W H G G A n x p t 8 2 - % @ O X . . ",
". . X O + % ; 4 r e l N J I ' 8.Y.R.oX$X:X:X:X:X;X*X%X(.!.W.6.=.O.;.-.-.-.-.-.-.O.O.+.#.#.~ ! ) ) ^ P K C z d q 5 : % @ O X . . ",
". . X O + $ ; 6 r p l H P y.a._.^.R.$X$X:X:X<X<X-X=X+X/.E.7.6.@.o.o.X.{ X.X.{ X.X.o.o.+.&.$.%.6.v.! _ / K n g e 5 , % @ O X . . ",
". . X O @ $ > 9 r l N P y.a.V._.|.{.$X$X:X<X<X<X-X#X+X/.E.9.3.@.X.{ { [ [ [ { { { X.o.+.&.d.d.f.b.v.y._ I A z e 7 , % @ O X . . ",
". . X O @ % > 9 e l N P y.V.K.`.|. X$X$X:X<X<X1X-X#XOX~.w.9.3. .} [ [ [ [ [ [ [ { { o.O.,.<.h.F.H.m.v.y./ S z s 8 , % @ o X . . ",
". . X O # $ > 9 y l B _ p.B.U.`.|. X&X$X;X-X-X-X#X@XOXr.q.5.2. .| [ [ ] ] ] ] [ [ { o.;.>.g.k.F.L.S.M.p.` J c e 7 , % @ o X . . ",
". . X O @ % > 9 u l H _ p.B.U.`.[.|. X&X*X=X#X#X@XOX~.r.e.4.2.| [ [ ] ] ] ] ] [ [ { X.;.<.j.z.x.L.S.B.p.` K c f 8 , % @ O X . . ",
". . X O @ % > 8 e l H _ p.B.U.'.'.}. X{.%X+X+X+XOXr.r.q.5.3...| | ] ] ] ] ] ] [ [ { X.;.<.j.z.G.P.L.B.p.` K c e 8 1 $ @ O X . . ",
". . X O @ % > 7 y l H _ n.B.U.U.'.].].}.(./.~.~.~.r.q.e.4.2. .| [ [ ] ] ] ] ] ] [ { X.;.<.j.z.G.P.L.N.p.t.K n e 8 , % @ O X . . ",
". . X O + % < 8 y k H ( p.N.U.U.'.'.!.!.Q.E.E.w.q.q.e.4.2...} | [ [ [ ] ] ] ] [ { { X.;.>.l.k.x.L.L.M.p.` J c d 8 1 % @ O X . . ",
". . X O + % > 7 e k H ( p.B.I.I.H.J.J.W.W.0.7.7.5.4.2.2... .} | [ [ [ ] ] ] ] [ [ { X.;.<.g.k.x.x.L.N.p.` J x e 8 1 % @ o X . . ",
". . X O @ % , 8 u c K ( p.M.B.L.H.H.C.C.6.6.3.2.2.2... .| | | [ [ [ [ ] [ ] [ [ [ { o.O.,.g.k.x.x.S.M.p.( J v e 8 , % @ O X . . ",
". . X O @ % 1 7 e k J ( i.M.D.L.H.F.C.1.=.=.@. .} } | | | ] | [ [ [ [ [ [ [ [ [ { { o.O.,.g.f.x.S.N.n.p.( J x e 7 , % @ O X . . ",
". . o o @ * , 8 e x J / p.n.S.S.F.A.l.<.;.;.} { | [ [ [ [ [ [ [ [ [ [ [ [ [ ] [ { { X.;.<.g.k.F.S.m.M.i.I K n e 0 1 % # o X . . ",
". . X o @ # , 8 e x J ( y.n.S.x.F.k.g.:.;.X.{ { [ [ [ [ [ [ [ [ { [ [ [ ] [ [ [ [ { X.;.<.g.k.F.G.D.M.i.( J x e 8 , # # O X . . ",
". . o o @ # , 8 f c J ` p.N.L.S.z.k.j.:.;.{ [ [ ] ] ] ] [ [ [ [ [ [ [ [ [ [ [ [ { { X.;.<.g.z.F.S.I.N.i.I J n e 8 , # + o X . . ",
". . o O @ * , 8 e c J ` p.N.L.P.z.k.j.:.-.{ [ [ ] ] ] ] ] [ ] [ [ [ [ ] ] ] ] [ [ { X.;.<.g.z.G.G.L.N.p.y.J c f 8 , * # O X . . ",
". . X o + # 1 8 e c K y.p.N.L.P.x.c.j.:.-.X.[ [ ] ] ] ] ] ] [ [ [ [ ] ] ] [ ] [ [ { X.;.<.j.c.G.P.L.N.v.` K c e 8 , # + O X . . ",
". . X o + > 1 8 f n K I v.N.L.P.x.c.j.:.-.{ { [ ] ] ] ] ] [ ] [ [ ] ] [ ] ] ] [ [ { X.;.>.l.z.x.P.L.N.p.t.K c f 8 1 * + O X . . ",
". . X o @ # 1 8 e c K y.p.N.L.P.x.c.j.:.-.X.{ [ ] ] ] ] ] [ [ [ [ [ ] ] [ ] ] [ [ { X.;.<.j.z.G.P.L.N.p.` K c e 8 , * # o X . . ",
". . o o # # 1 0 e c J I p.M.S.S.x.k.j.>.-.X.{ [ [ [ ] ] [ [ [ [ [ [ [ [ [ ] [ [ [ { o.;.<.j.k.F.S.S.N.p.I K c e 8 , # # O X . . ",
". . X o @ * 1 8 e x J I y.n.m.A.A.h.g.,.O.X.{ { [ [ [ [ [ { | [ { [ { [ [ [ [ [ { { o.;.,.1.l.h.m.M.p.y.I J x e 7 , * # O X . . ",
". . X o @ # , 7 e z Z P t.p.v.b.f.d.*.&.O.o.o.{ { { { { { { { { { { { { { { { { { X.o.+.&.*.d.f.m.v.p.t.P Z z e 7 , # @ O X . . ",
". . X o # # , 5 t j C K P _ t.u.~ s.$.&.#.o.o.o.X.X.X.X.X.X.X.X.X.X.X.X.X.X.X.X.o.o.O.+.&.$.%.%.u.t.t.P K n z t 5 , # @ O X . . ",
". . X o @ # , 5 q d z C J P / ) ! ! $.~ #.+.O.O.;.;.;.;.;.;.;.;.O.O.;.O.;.;.;.;.O.O.+.#.~ ~ ! ! ) R P K n x f q 5 , # # O X . . ",
". . X O @ # 1 5 8 t g z n A G V H E W Q #.&.&.&.<.<.<.<.<.>.,.,.<.<.<.<.<.<.<.<.,.&.&.#.Q W E R H G A n z f e 8 2 > % + O X . . ",
"  . X O + # , 1 5 0 t i i z m M B V E W ~ $.*.g.g.j.j.l.l.g.g.g.g.g.g.j.j.j.j.j.g.*.%.~ W R V B N k z p d t 0 5 1 * % # O X .   ",
"            # , 1 5 7 0 w y i a m B V E ! s.d.h.z.c.c.z.z.k.h.k.k.k.k.z.z.c.z.k.h.d.%.! E V N m a i y q 0 7 5 1 > *             ",
"              , : : 1 4 5 8 0 y a m B R ! s.f.h.F.G.G.F.x.x.x.z.F.F.F.G.G.G.G.F.A.f.~ ! R B m a y 0 8 5 2 1 , - *               ",
"                $ % * - : 1 5 0 y a M L ) u.b.A.S.P.P.P.L.L.S.S.S.x.L.P.P.L.L.x.m.b.v.) H M a y 0 6 4 - - * $ $                 ",
"                  @ @ # $ * 1 5 q p k G ^ t.v.m.S.S.L.L.L.D.S.S.N.S.L.L.L.L.L.L.m.v.! ^ G k i q 6 : * $ # # +                   ",
"                  X o + O $ & 1 8 e z Z P _ i.n.N.N.N.N.N.N.n.n.M.M.N.N.N.D.N.B.n.i._ P G a e 8 4 * $ O O O o                   ",
"                    . X O @ % : 5 q p n K / _ y.i.p.p.n.p.p.p.p.y.p.p.p.p.p.p.p.y._ ^ G n g e 5 - % @ O X .                     ",
"                      . X O $ & 2 0 e z C J P I ( ( ` ` ` ` ` / ( ( ( ( t.` ` I / P K C z u q 2 - $ O X .                       ",
"                        . O @ * 1 7 e f z n J J J K K K J J J J J J K J K J J J S D C z g t 7 , * O O X                         ",
"                          X @ % , 2 q t f g z c c c c x c c c c x x k c n c c c z z g d t t 5 : % O O                           ",
"                              $ > 2 5 8 q w e t e d d d d e e d e p e e u u e i t e e t 8 5 1 : %                               ",
"                                * > 1 2 7 5 7 8 7 7 8 8 8 8 7 7 8 8 7 8 8 7 8 7 8 8 5 5 2 1 : *                                 ",
"                                  * - - , , , , , , 1 1 , , 1 1 1 1 1 1 1 , 1 , , , : : : - *                                   ",
"                                    $ $ $ $ $ * # * % % # * % % # % % % % % # % * $ $ $ % %                                     ",
"                                    + # @ @ @ @ + # @ @ @ @ + + # + @ @ @ @ @ @ @ @ @ + + +                                     ",
"                                    O O O O O O O O O O O O o O O O O o O O O O O O O O O O                                     ",
"                                    X X X X X X X X X X X X X X X X X X X X X X X X X X X X                                     ",
"                                    . . . . . . . . . . . . . . . . . . . . X . . . . . . .                                     ",
"                                      . . . . . . . . . . . . . . . . . . . . . . . . . .                                       "
};
