/* XPM */
static char *_3b36d3eb87b4ca5d1256209d6b3f7faYdJuP7psqePtG4t6[] = {
/* columns rows colors chars-per-pixel */
"16 16 10 1 ",
"  c None",
". c #14182E",
"X c #52333F",
"o c #2B2B45",
"O c #3A3F5E",
"+ c #8F4D57",
"@ c #BD6A62",
"# c #4FA4B8",
"$ c #FFC2A1",
"% c #DFE0E8",
/* pixels */
"     ......     ",
"    .OOOOOO.    ",
"   .OOOOOOOO.   ",
"   .OOOOOOOO.   ",
"   .OO$OOOOO.   ",
"   .$$$OOOOO.   ",
"   .$ooOOOOO.   ",
"   .$.$O$$OO.   ",
"   .@.$O@$O.    ",
"    .$$$$O.     ",
"     ..@X..     ",
"    .%+X.%.     ",
"    .%+.@$.     ",
"    .##.$$.     ",
"     .@@..      ",
"      ..        "
};
