/* XPM */
static char *_456a8652b714bebddbd90420d7128a5uRPTRdsjVAsWXFto[] = {
/* columns rows colors chars-per-pixel */
"64 64 218 2 ",
"   c None",
".  c #050D26",
"X  c #0A0D24",
"o  c #070F28",
"O  c #080F28",
"+  c #0B132B",
"@  c #0D1127",
"#  c #12162B",
"$  c #14182E",
"%  c #111026",
"&  c #161B32",
"*  c #191D35",
"=  c #151C37",
"-  c #241C2F",
";  c #201B30",
":  c #1E223B",
">  c #1B253B",
",  c #2B2335",
"<  c #21263E",
"1  c #2D293A",
"2  c #25253A",
"3  c #342636",
"4  c #332E3D",
"5  c #3D2939",
"6  c #3B2735",
"7  c #35303E",
"8  c #442C3B",
"9  c #482B39",
"0  c #4A313E",
"q  c #56333E",
"w  c #1E2941",
"e  c #1C384E",
"r  c #242943",
"t  c #2B2C43",
"y  c #292E4A",
"u  c #252B48",
"i  c #372D40",
"p  c #2E3246",
"a  c #2C304C",
"s  c #23374E",
"d  c #333245",
"f  c #313449",
"g  c #3B3446",
"h  c #2B3755",
"j  c #313653",
"k  c #353A57",
"l  c #353B5B",
"z  c #3A3F5E",
"x  c #3C3C53",
"c  c #393F60",
"v  c #4D3541",
"b  c #433B4D",
"n  c #453944",
"m  c #533641",
"M  c #593A45",
"N  c #473F50",
"B  c #633A45",
"V  c #6A3A45",
"C  c #723E48",
"Z  c #26455A",
"A  c #3B405F",
"S  c #394B5E",
"D  c #3B4060",
"F  c #304D61",
"G  c #395367",
"H  c #285469",
"J  c #35657A",
"K  c #5D444B",
"L  c #56484E",
"P  c #444055",
"I  c #43455D",
"U  c #4B495D",
"Y  c #494354",
"T  c #594C56",
"R  c #4D434E",
"E  c #69454B",
"W  c #74444A",
"Q  c #77484C",
"!  c #644B54",
"~  c #7A4A51",
"^  c #655355",
"/  c #6B5355",
"(  c #695658",
")  c #6D595A",
"_  c #63535D",
"`  c #755457",
"'  c #444661",
"]  c #4C4A62",
"[  c #4A4660",
"{  c #524F66",
"}  c #4C596B",
"|  c #545167",
" . c #555268",
".. c #5A5667",
"X. c #595F71",
"o. c #655B6C",
"O. c #695E6D",
"+. c #675864",
"@. c #735C65",
"#. c #5E6273",
"$. c #486D7E",
"%. c #6A616E",
"&. c #796468",
"*. c #666776",
"=. c #766671",
"-. c #7A6A74",
";. c #756974",
":. c #6D727C",
">. c #834C4E",
",. c #884D4F",
"<. c #854A52",
"1. c #875556",
"2. c #935555",
"3. c #955B59",
"4. c #A45E5A",
"5. c #8A605E",
"6. c #AA625D",
"7. c #8A5A63",
"8. c #856864",
"9. c #986867",
"0. c #9B766C",
"q. c #98786F",
"w. c #826E75",
"e. c #816F78",
"r. c #857279",
"t. c #8A747A",
"y. c #837077",
"u. c #91767A",
"i. c #9B7E7C",
"p. c #977877",
"a. c #906B76",
"s. c #AC6962",
"d. c #A4666B",
"f. c #B26D66",
"g. c #BA776C",
"h. c #A57D74",
"j. c #B87E74",
"k. c #A1786E",
"l. c #C67F74",
"z. c #A68276",
"x. c #AA8476",
"c. c #AC8679",
"v. c #A8867C",
"b. c #B28A7D",
"n. c #B2817B",
"m. c #B9907E",
"M. c #CD8475",
"N. c #CA8A7A",
"B. c #D38C7B",
"V. c #DD927F",
"C. c #C2917F",
"Z. c #3D7285",
"A. c #4E788B",
"S. c #7D7886",
"D. c #6F7585",
"F. c #937A82",
"G. c #488498",
"H. c #598697",
"J. c #648C9B",
"K. c #728A97",
"L. c #589AAC",
"P. c #5299AB",
"I. c #61AABC",
"U. c #76A5B6",
"Y. c #7FB3C3",
"T. c #858897",
"R. c #A58682",
"E. c #AB8983",
"W. c #B68E81",
"Q. c #BB9284",
"!. c #B69289",
"~. c #BB968B",
"^. c #BF988D",
"/. c #B98B93",
"(. c #A69295",
"). c #969AA6",
"_. c #8893A1",
"`. c #AB9DA6",
"'. c #ACADB8",
"]. c #BBB2BD",
"[. c #BEA5A4",
"{. c #C59885",
"}. c #C29A8C",
"|. c #C99C8C",
" X c #C99584",
".X c #D69B87",
"XX c #C89E90",
"oX c #E79983",
"OX c #D6A28B",
"+X c #CDA190",
"@X c #DDAA91",
"#X c #D8A997",
"$X c #CDA08F",
"%X c #E6A38B",
"&X c #E2AD94",
"*X c #E8AD94",
"=X c #F8AE92",
"-X c #E5B198",
";X c #ECB59B",
":X c #E9B297",
">X c #F5B699",
",X c #F3BA9C",
"<X c #FCBD9D",
"1X c #F2B497",
"2X c #F3A98D",
"3X c #D2B5B9",
"4X c #EBBCA8",
"5X c #FFC29F",
"6X c #D2C0BD",
"7X c #FEC3A1",
"8X c #8CB5C4",
"9X c #A9B9C4",
"0X c #C5BFC4",
"qX c #A4C0CD",
"wX c #C4C3CB",
"eX c #C8C9D2",
"rX c #DED2DA",
"tX c #D6C9CD",
/* pixels */
"                                        # # # # # # # # # # # # # # # # # # # # # # # #                                         ",
"                                        $ $ $ # $ # $ $ $ $ $ $ $ # $ $ # $ $ $ $ # $ $                                         ",
"                                        * * * * * * & * * * * * * * * * * * * * * * * *                                         ",
"                                      * < < < < < < < < < < r < < < < < r < < < < < < < *                                       ",
"                                  # & : r t a a a a a a a a a y a a a a y y y a a y y r : & #                                   ",
"                                $ $ * < y j k l k l k k k k l k k k k k k k k k l l j y < * $ #                                 ",
"                                * * : t a l A A A z z z z z z z c z c z z z z D D c l a r : * *                                 ",
"                              * * < r y j z D D D D D D D z D D D D D D D D D D D N l j y r < : :                               ",
"                          $ * < r y a j k z z A D D z z D D z z z D D A D A D D D A z k j a y r < * $                           ",
"                        # $ & < y j l z z z z z z z z z z z z z z z z z A z z z z z z z z k j y < & $ #                         ",
"                        # $ & < a k z D z z z z c z c z z z z z z z z z z z z z z A z z D c k a < & $ #                         ",
"                        # $ * < a l D D z z z z z l l z z z z z A z z z z z z A z z z D D D k a < * $ #                         ",
"                        # $ * < a l D D D z z z l l l l z z z z z z z A z z z z z z z D D D k a < * $ #                         ",
"                        # $ * < y k c D D z z D z A A c z z z z z z z z z z z z z z z A D z k a < * $ #                         ",
"                        # $ * < a k c c c z D ' ] | { ] ' z z c z z z z z A z z z z z A D z k a < * $ #                         ",
"                        # $ & < y h l l l l D | o.=.-.%. .' z z z z z z z z z z z A z A D z k a < & $ #                         ",
"                        # $ & : y h l l h l ' o.t.R.R.F.%.] z l z c z z z z z z z c c c D z k a < * $ #                         ",
"                        # $ > < a k z c c c | -.E.+X+XE.-.| c l l z z z z z z z z c c N D z k a r & $ #                         ",
"                        # $ : 1 x U | | | ..%.F.}.:X-X^.r. .z l l z z z z z z c z z z D D z k y < * $ #                         ",
"                        + $ 2 g T =.e.r.r.t.F.}.-X<X4X}.t. .D l l z z z z z z z z z z z D z k a < & $ #                         ",
"                        @ $ 1 R &.R.!.~.}.}.XX&X,X7X,X}.t. .c l l c z z z z z z z z z D z z l a < * $ #                         ",
"                        O $ 4 T q.}.-X;X-X-X-X,X<X<X-X!.r.| c l l c z z z z z z z z z z D z k a r * $ #                         ",
"                        O $ 7 ^ h.@X<X<X,X-X-X&X*X@X|.v.=.{ z l l c z z c c z z z z z D D z k a < * # #                         ",
"                        O $ 7 / x.&X<X,X@X{.W.W.W.c.i.w.o.[ c l l l l l l l l z c z z D D z k a < * $ #                         ",
"                        O $ 7 ) c.&X,X@XW.a.&.&.&.&.) ..] D c c l l l l l l l l l z z D D z k a < * $ #                         ",
"                        O $ 7 ) x.@X&X{.p._ R b x b N b N c z z c c D D c c c c z z z D D z k a r * # #                         ",
"                        O $ 7 ) c.@X&XQ.&.N t t g b P P N c z ' ] | |  . .| { ] ' D z l D z l a < & $ #                         ",
"                        O $ 7 ) c.@X@XW.@.g 1 d R _ +...] ' ' | o.-.r.r.t.e.;.O.| ' z c z z l a < * $ #                         ",
"                        O $ 7 ) b.@X&Xb.) g 1 R @.p.i.e.+.] ] o.t.E.!.^.^.!.R.t.o.] z c c c l a < * # #                         ",
"                        + $ 7 ) c.@X@Xc.( 7 7 T q.{.|.E.=.| { =.R.+X-X,X;X-X+XR.-.| z c z z k y r * $ #                         ",
"                        o $ 4 / z.OX.Xh.^ 4 7 ^ x.@X&X!.-. .| =.R.OX>X5X7X<X-X!.r.| l l k k f y < * $ #                         ",
"                        O $ 4 ! 0.B.N.0.K 1 4 ^ c.&X:X^.r.| ] O.h..X2X<X7X7X,X}.t. .z h h a y r < & $                           ",
"                        + $ 1 K 3.M.n.5.M , 4 ^ c.&X-X^.e.{ [ +.9.j.V.2X=X<X>X}.t. .z h u r r * *                               ",
"                        + $ , M ,.s.s.1.q 1 7 ( c.#X-X}.a. .[ ! 7.f.l.oX=X>X-X~.r.| k y r * * &                                 ",
"                        + $ , v Q 2.3.~ K 0 L &.Q.&X-XXXF.%.o.@.9.f.l.B.oX&XXXE.=.] j r w * $ $                                 ",
"                          $ , 8 M W Q Q / ) 8.x.OX,X,X#X!.F.u.k.j. XoX X XQ.R.r.+.x y w = $ #                                   ",
"                              3 6 0 K / 8.h.m.OX:X<X7X;X#X}.}.|.OXoX.X XE.u.=...b a < : >                                       ",
"                                - , 0 / 0.{.&X>X<X5X7X,X;X:X:X;X,X>X&XQ.F.o.[ x y : * &                                         ",
"                                @ $ 4 ^ q.{.@X&X&X@X@X&X1X1X1X>X>X*X|.R.=.[ j r : & $ #                                         ",
"                                  @ 1 L 8.0.x.x.x.z.c.{..X%X%X%XoX Xj.w.! f r = & & # #                                         ",
"                                      R L ^ ^ ^ ! _ @.a.g.N.V.M.j.0.5.T n < & $ + # # #                                         ",
"                                        7 7 7 4 i i v C 3.f.f.6.3.~ M v 4 2 & & & & # $                                         ",
"                                        d p 4 < , , 3 M <.3.4.2.W m v i g d p < : & & #                                         ",
"                                      S } ..} U l i 9 M W <.,.C m 8 4 b U ..} I d < $ +                                         ",
"                                  # p | D.T.T.-.7.! B V C W C q 8 , i U :.T.T.*.I 2 $ @                                         ",
"                                O & p X.T.'.9X`.F.7.~ C V B q 8 , - d X.T.'.'.T...p $ X                                         ",
"                                O $ f #.).wXrX3XF.d.<.C B q 8 3 , , b =.`.0X0X).*.p $ X                                         ",
"                                X $ j #.).tXrX3X}.d.<.V q 8 6 3 9 9 ! u.[.tX3X(.%.p $ X                                         ",
"                                X $ f #.).eXrX0X}.d.<.V 9 6 3 8 q W 3.n.#X6X-X(.+.d $ o                                         ",
"                                X $ f #.).eXtX3X/.9.<.m 5 , , 0 E 2.f.V.&X7X#Xv.) 4 $ O                                         ",
"                                X $ p X._.qXeX].(.F.~ M 4 ; , v >.s.M.oX=X>X&Xz.( 7 $ O                                         ",
"                                + $ 1 } K.8XqX'.).S.O.D t > 1 M 5.M.V.=X<X5X&Xx.( 7 $ +                                         ",
"                                @ & < G H.U.Y.U.U.D.A.G h : 1 K 9.V.1X5X7X5X&Xx.^ 7 $ O                                         ",
"                                @ $ s F A.L.I.I.I.I.A.J h w 4 ! k.OX>X5X5X5X@Xz.^ 7 $ O                                         ",
"                                @ $ e Z J G.P.P.P.L.J.A.F f n / 0.{.@X:X:X@X{.q.^ 7 $ O                                         ",
"                                  # > e H J A.G.H.J.K.D.+.L B ` 8.q.x.x.x.z.q.&.L 7 $                                           ",
"                                      e e Z F } *.T.u.q.9.1.>.` ` / ( ( ( ( ^ L b                                               ",
"                                        > w p L ` 9.f.f.s.6.3.~ K 0 7 1 1 7 7 1                                                 ",
"                                        + $ 1 0 Q 2.6.6.6.6.2.W q , $ # # $ $ $                                                 ",
"                                          $ - 8 B W >.>.,.~ W E 8 * X . . . +                                                   ",
"                                              6 9 0 q q M q m 8 4                                                               ",
"                                                , , , , , , , ,                                                                 ",
"                                                $ $ $ $ $ $ $ $                                                                 ",
"                                                + + + @ + + + +                                                                 "
};
