/* XPM */
static char *_cb9b9735c9a499e96176ecc1e077864X4vcSfo9Uc8wxSqm[] = {
/* columns rows colors chars-per-pixel */
"64 64 218 2 ",
"   c None",
".  c #050D26",
"X  c #0A0D24",
"o  c #070F28",
"O  c #080F28",
"+  c #0B132B",
"@  c #0D1127",
"#  c #12162B",
"$  c #14182E",
"%  c #111026",
"&  c #161B32",
"*  c #191D35",
"=  c #151C37",
"-  c #241C2F",
";  c #201B30",
":  c #1E223B",
">  c #1B253B",
",  c #2B2335",
"<  c #21263E",
"1  c #2D293A",
"2  c #25253A",
"3  c #342636",
"4  c #332E3D",
"5  c #3D2939",
"6  c #3B2735",
"7  c #35303E",
"8  c #442C3B",
"9  c #482B39",
"0  c #4A313E",
"q  c #56333E",
"w  c #1E2941",
"e  c #1C384E",
"r  c #242943",
"t  c #2B2C43",
"y  c #292E4A",
"u  c #252B48",
"i  c #372D40",
"p  c #2E3246",
"a  c #2C304C",
"s  c #23374E",
"d  c #333245",
"f  c #313449",
"g  c #3B3446",
"h  c #2B3755",
"j  c #313653",
"k  c #353A57",
"l  c #353B5B",
"z  c #3A3F5E",
"x  c #3C3C53",
"c  c #393F60",
"v  c #4D3541",
"b  c #433B4D",
"n  c #453944",
"m  c #533641",
"M  c #593A45",
"N  c #473F50",
"B  c #633A45",
"V  c #6A3A45",
"C  c #723E48",
"Z  c #26455A",
"A  c #3B405F",
"S  c #394B5E",
"D  c #3B4060",
"F  c #304D61",
"G  c #395367",
"H  c #285469",
"J  c #35657A",
"K  c #5D444B",
"L  c #56484E",
"P  c #444055",
"I  c #43455D",
"U  c #4B495D",
"Y  c #494354",
"T  c #594C56",
"R  c #4D434E",
"E  c #69454B",
"W  c #74444A",
"Q  c #77484C",
"!  c #644B54",
"~  c #7A4A51",
"^  c #655355",
"/  c #6B5355",
"(  c #695658",
")  c #6D595A",
"_  c #63535D",
"`  c #755457",
"'  c #444661",
"]  c #4C4A62",
"[  c #4A4660",
"{  c #524F66",
"}  c #4C596B",
"|  c #545167",
" . c #555268",
".. c #5A5667",
"X. c #595F71",
"o. c #655B6C",
"O. c #695E6D",
"+. c #675864",
"@. c #735C65",
"#. c #5E6273",
"$. c #486D7E",
"%. c #6A616E",
"&. c #796468",
"*. c #666776",
"=. c #766671",
"-. c #7A6A74",
";. c #756974",
":. c #6D727C",
">. c #834C4E",
",. c #884D4F",
"<. c #854A52",
"1. c #875556",
"2. c #935555",
"3. c #955B59",
"4. c #A45E5A",
"5. c #8A605E",
"6. c #AA625D",
"7. c #8A5A63",
"8. c #856864",
"9. c #986867",
"0. c #9B766C",
"q. c #98786F",
"w. c #826E75",
"e. c #816F78",
"r. c #857279",
"t. c #8A747A",
"y. c #837077",
"u. c #91767A",
"i. c #9B7E7C",
"p. c #977877",
"a. c #906B76",
"s. c #AC6962",
"d. c #A4666B",
"f. c #B26D66",
"g. c #BA776C",
"h. c #A57D74",
"j. c #B87E74",
"k. c #A1786E",
"l. c #C67F74",
"z. c #A68276",
"x. c #AA8476",
"c. c #AC8679",
"v. c #A8867C",
"b. c #B28A7D",
"n. c #B2817B",
"m. c #B9907E",
"M. c #CD8475",
"N. c #CA8A7A",
"B. c #D38C7B",
"V. c #DD927F",
"C. c #C2917F",
"Z. c #3D7285",
"A. c #4E788B",
"S. c #7D7886",
"D. c #6F7585",
"F. c #937A82",
"G. c #488498",
"H. c #598697",
"J. c #648C9B",
"K. c #728A97",
"L. c #589AAC",
"P. c #5299AB",
"I. c #61AABC",
"U. c #76A5B6",
"Y. c #7FB3C3",
"T. c #858897",
"R. c #A58682",
"E. c #AB8983",
"W. c #B68E81",
"Q. c #BB9284",
"!. c #B69289",
"~. c #BB968B",
"^. c #BF988D",
"/. c #B98B93",
"(. c #A69295",
"). c #969AA6",
"_. c #8893A1",
"`. c #AB9DA6",
"'. c #ACADB8",
"]. c #BBB2BD",
"[. c #BEA5A4",
"{. c #C59885",
"}. c #C29A8C",
"|. c #C99C8C",
" X c #C99584",
".X c #D69B87",
"XX c #C89E90",
"oX c #E79983",
"OX c #D6A28B",
"+X c #CDA190",
"@X c #DDAA91",
"#X c #D8A997",
"$X c #CDA08F",
"%X c #E6A38B",
"&X c #E2AD94",
"*X c #E8AD94",
"=X c #F8AE92",
"-X c #E5B198",
";X c #ECB59B",
":X c #E9B297",
">X c #F5B699",
",X c #F3BA9C",
"<X c #FCBD9D",
"1X c #F2B497",
"2X c #F3A98D",
"3X c #D2B5B9",
"4X c #EBBCA8",
"5X c #FFC29F",
"6X c #D2C0BD",
"7X c #FEC3A1",
"8X c #8CB5C4",
"9X c #A9B9C4",
"0X c #C5BFC4",
"qX c #A4C0CD",
"wX c #C4C3CB",
"eX c #C8C9D2",
"rX c #DED2DA",
"tX c #D6C9CD",
/* pixels */
"                                        # # # # # # # # # # # # # # # # # # # # # # # %                                         ",
"                                        $ $ $ $ $ $ $ $ $ $ $ # $ $ $ # $ $ $ $ $ $ $ $                                         ",
"                                        & & & * * * * * * * * & * & * * * & * * * * * &                                         ",
"                                      * < < < < < < < < < < < r < r < < < r < < < < < < *                                       ",
"                                  # & < r y a a a a a a a y a a a a a a y y a a y y y r : & #                                   ",
"                                # $ * < y j k k k k k k k k k k k k k k k k k k k k k y < * $ $                                 ",
"                                & * : r a k A A D A z z A z z z c z z z z z c D z z k y r < * &                                 ",
"                              * : < r y j z D D D D D D D D D D D z D D D D D D ' D l j y r < : :                               ",
"                          $ * < r y a j k z A D D A A D D A A D D D D A c c z z D D z k j a y r < * $                           ",
"                        # $ & < y j k z z z z z z z z z z z z z z z z z z z z z z z z z z k j y < & $ #                         ",
"                        # $ & < a k z D z z z A z z z z z z z z z z z z z z c z z z z z D z k a < & $ #                         ",
"                        # $ * < a k D D D z z z z z z z z z z c z z z z z l l c z A z D D D l a < * $ #                         ",
"                        # $ * < a k D D D z z z z z z z z z z z z z z z l l l l z z z D D D k a < * $ #                         ",
"                        # $ * < a k z D D z z z z A z z z z z z z z z z z A z z z z c D D z l a < * $ #                         ",
"                        # $ * < a k z D A z z A z z z z z z z c z z D ' ] { { ] ' z z c z z k y < * $ #                         ",
"                        # $ * < a k z D D z z z z z A z z z z z z z ' | %.;.;.O.{ ' l l l l h y < & $ #                         ",
"                        # $ * < a k z D D z z z z c z z z z z l z D ] %.F.E.R.t.O.' l h l l h u < & $ #                         ",
"                        # $ & r a k z D z z z z z z z z A z z z l D | -.E.+X+XE.-.| D c D A k a < * $ #                         ",
"                        # $ & < a k z D D z z A z z z z z z z l l c | r.~.-X-XXXF.=. .| { | ] x 1 : $ #                         ",
"                        # $ * < y k A D A z z z z z z z z z z l k A  .t.}.;X<X-X!.R.t.r.r.-.&.U g 2 $ @                         ",
"                        # # * < a k z D D z z z c z z z z c c l l c | t.}.,X7X,X#X+X~.~.~.!.z.&.R 1 $ +                         ",
"                        # $ * < a k z D A z z z z z z z z c c l l c | e.!.-X<X7X,X;X-X;X;X@X}.q.T 1 $ +                         ",
"                        # $ * r a k z D A z z z c c z c z z c l k A { =.v.|.@X:X:X#X-X,X5X5X@Xz.( 7 $ O                         ",
"                        # $ * < y k z D D z z z l l l l l l l l l A [ o.w.i.v.b.W.W.{.@X1X<X&Xb.) 7 $ o                         ",
"                        # $ & < a k z D D z z c l l l l l l l l z c I { T +.@.&.@.8.u.b.@X,X&Xx.) 7 & o                         ",
"                        # $ * < a k z D D z z z z z z z c c c c c z z A P P Y b b N _ a.{.:X@Xx.) 4 $ o                         ",
"                        # $ * < a k z D z z z ' ] { |  . . .{ ] D D A P P N b g t d R &.W.&X@Xb.) 4 $ O                         ",
"                        # $ * < a k c D z z ' | O.-.e.t.t.r.-.%.| ' I ] +.+._ Y d < g &.W.@X@Xb.) 7 $ o                         ",
"                        # $ * < a k c c z c ] o.t.R.!.^.}.~.E.t.o.] [ o.w.i.q.@.R 1 7 ) b.&X&Xc.) 7 $ X                         ",
"                        # $ & < a k c l l A { -.E.XX-X,X;X-X.XF.=.{ { ;.R.|.{.q.T 7 7 ) x.@X@Xc.) 7 $ O                         ",
"                        # $ & < y j k k k c | r.!.-X<X7X7X>X@XE.=.{ | e.~.&X@Xh.^ 7 4 ^ h.OXOXh./ 4 $ +                         ",
"                          $ * < r y a h h c  .t.}.;X7X7X<X2X Xh.O.] | r.~.:X&Xc.^ 4 , K 0.N.B.0.! 4 $ O                         ",
"                              : : r r u j l  .t.XX;X<X<X2XoXl.9.+.[ { y.~.-X&Xc.^ 4 2 m 5.n.x.4.K 3 # @                         ",
"                                & * * u y l | r./.-X>X2XoXl.f.7._ [  .t.~.-X&Xc.( 7 1 q ,.s.s.2.M , # +                         ",
"                                # $ * * u j ] ;.R.+X%X%X.Xl.g.9.7.o.%.F.XX:X&Xm.8.L 0 M Q 3.2.Q v , $ +                         ",
"                                  # & = w y b ..w.R.Q. XoXl.B.n.p.a.F.!.#X,X;XOXc.8.) ` ` Q W B 0 , &                           ",
"                                      * * r y N ..=.u.E. X.X%X.X|.^.}.#X;X7X<X;XOXm.x.8./ K 0 5 1                               ",
"                                        & * < t x U O.u.Q.&X>X>X:X:X:X;X,X7X7X,X1X&XC.q./ n , -                                 ",
"                                        # $ * = r j U =.v.OX*X>X>X>X1X1X*X&X@X&X@X@XC.0.! 4 & O                                 ",
"                                        # $ $ & = r j ! 8.n.C.OX%X%X%X.XC.b.z.z.x.z.z.8.L 1 +                                   ",
"                                        $ # $ $ # = < n ! 5.0.g.M.B.M.g.a.@.! ^ / / ^ L n                                       ",
"                                        $ $ $ $ # > 2 4 n K ~ 2.s.g.f.3.C v i t 4 4 4 4                                         ",
"                                        # $ = * < p f g 5 0 M W 2.4.3.>.m 5 , < 1 p f p                                         ",
"                                        % $ : f I  . .U x 4 5 q W ,.,.W B 5 n b U  .} { A                                       ",
"                                        @ $ < U *.K.T.:.U 7 - 9 q V W C B B C O.S.T.T.D.{ a &                                   ",
"                                        O & p ..T.'.'.T.X.7 - , 9 q B V C Q d.F.`.].]._.X.p # X                                 ",
"                                        X $ p *.).6XwX`.;.R 3 , 3 8 q B C <.d.F.3XtXqX).#.p & X                                 ",
"                                        X $ p %.(.6X6X[.u.! 0 6 6 6 8 q V <.d./.3XrXtX).*.p & X                                 ",
"                                        o $ d %.R.6X7X+Xn.3.W q 6 3 3 v V <.d./.3XrXtX).*.f $ X                                 ",
"                                        + $ 7 ( v.#X4X-XB.f.2.E v 3 , 5 m <.9./.3XrXwX).X.d $ X                                 ",
"                                        o $ 7 ( x.@X,X=X%XM.6.>.v , 2 3 M ` a.(.].qXqX_.X.p $ X                                 ",
"                                        o $ 7 ( x.*X<X<X=XV.M.5.M , * y ' O.S.).9XqX8XK.} p $ X                                 ",
"                                        o $ 7 ( x.&X5X7X5X1XV.0.M t = s } A.J.U.8X8XU.H.G s $ @                                 ",
"                                        o $ 4 ^ z.@X5X5X5X>XOX0.! i w h J G.L.I.I.I.P.A.F w $ @                                 ",
"                                        o $ 4 ^ 0.C.@X:X:X@X{.0./ g f G A.H.L.P.P.P.Z.Z.Z w $ %                                 ",
"                                          $ 4 L &.0.x.c.c.x.z.8.` E K +.:.K.J.H.A.Z.J H Z > $                                   ",
"                                              R L ^ ^ ( ( ( / ` Q >.1.9.q.F.F.:.} F Z Z e                                       ",
"                                                4 4 4 4 4 7 0 K ~ 3.6.f.s.f.9.) L d w >                                         ",
"                                                $ $ $ # # & , 0 Q 2.6.6.6.4.2.W 0 1 & #                                         ",
"                                                  o . . . . - 8 E W Q ,.>.>.Q M 8 - @                                           ",
"                                                              4 0 q q q q q 0 0 6                                               ",
"                                                                2 , , , , , , ,                                                 ",
"                                                                $ $ $ $ $ $ $ $                                                 ",
"                                                                + + + + + + + +                                                 "
};
