/* XPM */
static char *_ce375883c2d4f95e610a3ffab9ed8c5YmDFf82zQTeYM01Y[] = {
/* columns rows colors chars-per-pixel */
"64 64 217 2 ",
"   c None",
".  c #040C26",
"X  c #070F28",
"o  c #090F27",
"O  c #0B132A",
"+  c #12162B",
"@  c #15192E",
"#  c #1C192E",
"$  c #171429",
"%  c #161B33",
"&  c #1A1D34",
"*  c #151C38",
"=  c #241E32",
"-  c #2A1F34",
";  c #271C2E",
":  c #1E233C",
">  c #192439",
",  c #252134",
"<  c #2B2335",
"1  c #21263E",
"2  c #2B293B",
"3  c #332E3D",
"4  c #3B2A39",
"5  c #362537",
"6  c #35303E",
"7  c #452D3B",
"8  c #4D2F3D",
"9  c #4B323E",
"0  c #47313E",
"q  c #1B2B41",
"w  c #242B49",
"e  c #2A2E4A",
"r  c #282A43",
"t  c #2C314C",
"y  c #2F3245",
"u  c #343244",
"i  c #393448",
"p  c #313652",
"a  c #353A57",
"s  c #353B5B",
"d  c #3A3F5E",
"f  c #3F3D53",
"g  c #2E375A",
"h  c #393F60",
"j  c #4D3541",
"k  c #443B46",
"l  c #443C4E",
"z  c #473A47",
"x  c #543441",
"c  c #5D3642",
"v  c #533943",
"b  c #593E4A",
"n  c #463F53",
"m  c #633B44",
"M  c #683B47",
"N  c #733D49",
"B  c #1E465C",
"V  c #3B405F",
"C  c #25485E",
"Z  c #3B4060",
"A  c #344D60",
"S  c #4C414A",
"D  c #52434C",
"F  c #59484E",
"G  c #43445E",
"H  c #494356",
"J  c #5C4C51",
"K  c #534858",
"L  c #694248",
"P  c #74454B",
"I  c #7A434C",
"U  c #674A55",
"Y  c #7E4A52",
"T  c #655356",
"R  c #64545A",
"E  c #6B5758",
"W  c #6C595B",
"Q  c #685557",
"!  c #79575A",
"~  c #7A615F",
"^  c #444661",
"/  c #4C4B64",
"(  c #464962",
")  c #524E66",
"_  c #555166",
"`  c #565268",
"'  c #5A5367",
"]  c #515B70",
"[  c #645B6B",
"{  c #685966",
"}  c #745B63",
"|  c #6A616D",
" . c #7D6461",
".. c #796266",
"X. c #696373",
"o. c #7B6A74",
"O. c #766875",
"+. c #84494E",
"@. c #854B53",
"#. c #894954",
"$. c #885658",
"%. c #925655",
"&. c #98595C",
"*. c #904C56",
"=. c #A55F5B",
"-. c #AA615D",
";. c #945C64",
":. c #A45F63",
">. c #876669",
",. c #996469",
"<. c #94746E",
"1. c #9B756C",
"2. c #9A786F",
"3. c #816D75",
"4. c #857279",
"5. c #8B757A",
"6. c #8F787C",
"7. c #9B7A71",
"8. c #9A7E7C",
"9. c #937574",
"0. c #8C706F",
"q. c #AC6B64",
"w. c #A46667",
"e. c #B26B65",
"r. c #B46B67",
"t. c #B8766D",
"y. c #A47776",
"u. c #B77676",
"i. c #AB766C",
"p. c #C5766B",
"a. c #C97A6E",
"s. c #D17C6F",
"d. c #C57D74",
"f. c #A68276",
"g. c #AB8376",
"h. c #AB867A",
"j. c #AE887A",
"k. c #B28A7C",
"l. c #BB8779",
"z. c #CC8375",
"x. c #C88779",
"c. c #D38B7A",
"v. c #D88A78",
"b. c #D5917E",
"n. c #396D82",
"m. c #2F6C82",
"M. c #5A6E84",
"N. c #527489",
"B. c #707082",
"V. c #897B87",
"C. c #AC7D86",
"Z. c #568399",
"A. c #6F8398",
"S. c #4E91A6",
"D. c #799DAF",
"F. c #62A7BA",
"G. c #63B0C2",
"H. c #948F9B",
"J. c #97919C",
"K. c #898393",
"L. c #A58682",
"P. c #AB8A83",
"I. c #A9848A",
"U. c #B68988",
"Y. c #BB958A",
"T. c #BA9488",
"R. c #AC9395",
"E. c #9A99A2",
"W. c #A79FA6",
"Q. c #98A3B1",
"!. c #B4B1BB",
"~. c #B2A7B2",
"^. c #C69985",
"/. c #C99D8C",
"(. c #C39888",
"). c #D99A85",
"_. c #C89A92",
"`. c #E39B85",
"'. c #D9A38C",
"]. c #CDA190",
"[. c #DEAA91",
"{. c #D8A997",
"}. c #E7A38B",
"|. c #EAA48B",
" X c #E2AE95",
".X c #E7A791",
"XX c #F6AD91",
"oX c #E6B096",
"OX c #EAB296",
"+X c #E4B098",
"@X c #EFB89D",
"#X c #EBB59B",
"$X c #F5B698",
"%X c #F4BA9D",
"&X c #FCBF9F",
"*X c #F3B497",
"=X c #F2A88E",
"-X c #C3A4A7",
";X c #C5ACB5",
":X c #D6B8B5",
">X c #FFC09F",
",X c #D5C3BF",
"<X c #FFC3A2",
"1X c #FFCBA6",
"2X c #FFCEA9",
"3X c #F6CAAE",
"4X c #84B9C9",
"5X c #A4BECB",
"6X c #D0BEC5",
"7X c #AFD5E1",
"8X c #9ACAD7",
"9X c #DBD3DA",
"0X c #CFC7CC",
"qX c #CCD8E2",
"wX c #DAE0E8",
"eX c #E5E6EE",
"rX c #E7ECF4",
/* pixels */
"                                        + + O + + + + + + + + + + + + + + + + + + + + +                                         ",
"                                        @ @ @ @ @ @ @ @ @ @ + % @ + + @ @ @ @ + @ @ @ @                                         ",
"                                        & & & & & * & & & & & & & * & * & & & * & & & &                                         ",
"                                      & : 1 1 1 1 : r : 1 1 q 1 r : : r 1 1 1 1 1 1 : : &                                       ",
"                                  + % : r w t t t t t t t t t t t t t t t t t t t t e r 1 % +                                   ",
"                                + @ & 1 e p a s a s a a a a a s a a a a a a a a s a p e 1 % % +                                 ",
"                                % & > r t s V V V V V V s V V s s Z Z V s V V V Z d s t r & % %                                 ",
"                              & : : r t p d Z Z Z Z V Z Z Z Z Z Z Z Z Z Z Z Z Z Z h d p e r 1 : :                               ",
"                          @ & : r e t p a d V Z Z V V Z V Z V Z V V V V Z V Z V Z Z V a p p e r : & @                           ",
"                        + @ & 1 e p s s d V V Z s V V V V Z s V V V Z s Z s V V V s V s d a p r 1 & + +                         ",
"                        + @ & r t a d V V Z d Z V V s Z V V Z V V V V V V V V V V h V V Z d a t 1 & @ +                         ",
"                        + @ * : t s d Z s s s s s V V V V s s V s V Z s V s V V s s s Z Z h a t r & @ +                         ",
"                        + + & 1 t a d Z s s s s s s Z V Z Z V V Z V s Z Z V s s s s s d h d a t : & @ @                         ",
"                        + @ & 1 t a d Z Z Z Z V Z Z V V s Z s Z s V V Z Z s V V Z Z d V Z d a t q % @ +                         ",
"                        + @ * 1 t a Z ( / ) ) / ( Z V s Z Z s Z Z Z s Z V V Z ( ( / ) / ^ Z s e r & @ +                         ",
"                        + @ & 1 e s ^ ` X.O.O.| ` Z s g s s s s s s s s g s Z ` X.O.o.X.' ^ s e : % + +                         ",
"                        + @ & : e s / | 6.P.L.5.X.^ g g g s s s s s s s g s ^ | 5.L.P.6.| / s w : & @ +                         ",
"                        + @ * : w a ) 3.P.].].P.O./ Z s V Z V V h d h s s h ` o.P.].].P.3.) s w : * + +                         ",
"                        + + * : w s _ 4.Y.+X#X_.f.X.` ) / ` ` ` ` ) ) ) ) ` [ 8._.#X XY.5.` a r : % + +                         ",
"                        o + % * w a _ 6._.@X&X+XY.L.5.o.o.4.3.3.o.4.4.o.4.4.L.Y.+X&X@X_.5.` a w * % O O                         ",
"                        o O @ > w a ` 5.(.@X<X%X X].Y.Y.T.T.T.T.T.T.T.T.T.Y.].+X%X<X@X_.5.` a w * * o o                         ",
"                        + % * q w s _ 3.Y.+X<X<X%XOX+X X+X X XoX+X+X+X{.+X+X+X%X<X&X+XT.4.) s w q & @ @                         ",
"                        3 3 y y p a ) o.L./.{.oXoX[.oX#X@X<X>X>X<X<X<X%XOX XoXOXoX[./.L.O./ f p y u 3 3                         ",
"                      z J T R J H G ( [ 3.8.j.k.T.k.(.].+X>X1X1X1X<X&XOX'.(.T.k.P.j.8.o.[ / ^ H K R T J z                       ",
"                  @ 3 J >.2.7.o.[ / G H ) { } ..} ..9.P.'.@X1X1X1X<X%X'.P.0.....} ..{ _ H G ( [ 0.2.2.>.J 3 @                   ",
"                X @ 3 Q 2.^./.h.o.) d d f H S l l H R 0.T.oX>X1X1X<XoXT.0.R H l n S H a f V ) o.L./.^.2.Q 3 @ X                 ",
"                o @ 6 E h.[.+XY.4.` G a l n l i r y l ..k. X<X2X2X<X Xj.} n y r i l H l d V _ 5.Y.oX[.g.E 6 % o                 ",
"                O @ 6 W k.+X@X].5.' G G _ { R D u r i W h. X<X2X2X<X Xh.W i r u H R R _ G G _ 5.].@XOXk.W 6 @ o                 ",
"                X @ 6 W k.OX@X_.5.` ^ ' 3.8.9.} z u u E g. X<X2X2X<X Xg.E u 3 z ! 9.8.3.' ( ` 4._.@X+Xj.W 6 @ o                 ",
"                X @ 6 E g.[.+XY.4.` ) O.L./.^.9.J u 6 T y.[.>X1X1X>X[.f.Q u u U 9.(./.L.O.) ` 4.Y. X[.h.E 6 @ o                 ",
"                X @ 3 Q 2.^./.j.o.' { 5.(.+X[.g.U 3 3 J 2.'.$X>X<X$X'.1.J 3 3 T g.[.+X(.9.{ { 3.h.^.^.f.Q 3 @ O                 ",
"                  @ 3 J >.2.7.<.>.} >.u.'.%X Xh.Q 3 < D >.c.}.=X=X}.x.>.D < 3 Q h. X@X'.C.>.} ..0.f.7. .J 3 @                   ",
"                      S F T E ! $.>.i.x..X%XoXj.T 6 , 9 #.u.s.`.v.v.t.$.9 < 3 T j.oX>X.Xx.1.&.! ! E Q F S                       ",
"                        2 6 0 F Y &.e.b.=X*X[.g.Q u < 9 Y r.p.s.s.p.q.Y 9 2 6 T g.[.OX|.c.t.&.Y F 0 6 2                         ",
"                        O @ , 7 L %.q.z.'.|.'.g.~ S z U $.r.p.s.s.p.e.%.L S S ~ g.'.=X}.z.q.%.L 0 , @ O                         ",
"                        . o $ < 8 L %.q.c.b.'.l.2. .$.>.i.x.v.v.v.v.x.i.>.~ ~ 2.l.'.b.x.e.%.L 8 < + . .                         ",
"                        . . O # ; 7 m @.q.x.c.x.x.k.k.x.).).}.|.|.}.'.b.x.k.k.l.x.c.z.q.$.m 7 < $ $ X .                         ",
"                        @ @ @ & = < 4 L $.q.a.c.).'. X#X#X$X$X$X$X$X*X*XOX X[.b.c.z.-.$.m 7 , > # @ + +                         ",
"                        2 6 6 2 y y S F @.=.e.z.b.}.OX%XXX$X$X$X$X*X*X$X$X*XOXb.z.e.=.Y F k y y 3 3 3 3                         ",
"                      k J T W | [ X.| { ! $.=.e.x.b.'.}.|.|.|.|.|.|.}.}.}.'.b.x.q.=.$.! | | X.[ | E T J k                       ",
"                  o , D ~ f.P.R.E.E.H.K...! +.%.:.u.u.d.v.v.s.v.v.v.v.z.d.d.u.:.*.@.! o.K.J.J.R.R.j.2.>.D 2 o                   ",
"                O @ 6 T 2.^.{.:X,X0X!.H.o.E M P #.;.:.r.r.p.p.s.p.p.p.e.r.:.;.#.N M U 3.J.!.0X,X,X{.b.1.T 6 @ o                 ",
"                < 6 S ! g.'.@X3X,X,X!.E.O.U c m N #.*.:.r.p.d.u.d.d.p.e.:.;.#.N m c U O.J.!.0X,X3XoX'.g.~ S 6 1                 ",
"              k D T ~ 1.l.b..X{.-XW.H.o.{ F c 8 N #.*.:.C.U._._._._.T.u.,.*.#.N c x b { o.J.W.~.{.[.b.l.1.~ T D k               ",
"          @ 3 F ~ 2.g.l.x.c.x.k.6.O.[ ) b v x m N #.;.C.U.-X:X6X:X;X-XU.y.;.#.N c 8 j n _ { O.6.h.x.c.x.l.g.2. .F 3 %           ",
"        X @ 6 T 2.^.'.}.b.z.r.$.U l i u u 8 c m N #.;.C.-X6X9X9X9X9X6X-XC.;.*.N M c j j u i l U $.t.z.b.`.'.^.2.T 6 @ X         ",
"        o @ 6 R h.[.$XXX`.z.e.$.v < = - 5 x m M I #.:.C.;X9XeXeXrXeX9X;XC.,.*.N N M 8 5 - = < v @.e.z.b.XX%X[.f.Q 6 @ X         ",
"        X @ 6 E j.OX<X>XXXb.t.$.v < $ ; 7 m N N #.*.,.C.;X9XeXrXrXeX9X;XC.w.*.#.N N m 7 ; $ - v %.z.b.XX>X<XOXj.Q 3 @ X         ",
"        X @ 6 R j.oX1X1X&X=Xb.<.F < = < 8 N N #.#.*.,.C.;X9XeXrXrXeX9X6XC.,.*.#.#.+.M x < # 2 F 1.b.=X>X1X1XoXf.Q 6 @ .         ",
"        X @ 6 Q f.[.>X1X>X$X'.1.J 3 , 5 x P #.#.*.*.,.C.~.9XwXeXeXwX6X;XC.,.*.#.#.#.N x 5 = 3 J 1.'.$X<X1X<X[.f.T 6 @ O         ",
"        o @ 6 T 2.^.[.OX#X[.x.<.J 3 = 5 j N N #.Y ;.,.C.~.7XwXwXwXqX6X~.C.V.#.#.+.N P j 5 ; 3 F 0.b.[.OXOX[.k.f.T 3 + O         ",
"          @ 3 F ~ 2.f.j.h.f.2.W z < & - 7 x M U U { B.K.Q.5X7X7X7X7X5XQ.V.B.} U M M v 4 ; = < S W <.f.j.f.f.f.~ F 3 @           ",
"              z F T Q W W Q J S 3 > # ; - 5 k z / ` M.B.Q.G.8XG.4X4XG.Q.A.B.[ / G j 5 - # # , 6 S J W W W T T F S               ",
"                3 3 6 6 6 6 2 2 = % @ @ & = 2 i Z M.M.N.F.F.G.G.G.G.F.S.N.M.M.h a r = = # @ % > 2 3 6 6 6 6 6 6                 ",
"                + @ @ @ @ @ @ @ @ @ @ @ = - 3 f / M.M.M.N.N.S.S.S.S.S.N.N.M.] / f u - = # @ @ @ + + + + + + % %                 ",
"                  . . . O . O O + @ # - 4 9 D T } O.B.M.N.n.m.m.m.n.n.N.M.B.O.{ U v j 5 , & @ + O O O X X X X                   ",
"                              O + @ > 5 9 I $.%.,.,.>...] A C B B C Z ) | >.0.,.$.$.P 9 7 , @ O O                               ",
"                                O @ - 9 P %.-.-.q.q.,.! S y q > q w e b ! ;.q.r.-.-.%.L 0 < @ O                                 ",
"                                O @ 2 9 P %.-.-.-.=.%.P j < + O X * 1 j P %.=.=.-.-.%.L 9 < @ O                                 ",
"                                  @ < 9 L P Y $.@.Y P m 7 = $ . . X ; j m P +.#.$.+.Y L 0 < @                                   ",
"                                      4 9 9 9 9 9 9 9 9 4             4 9 9 8 9 v v 9 9 4                                       ",
"                                        < < 4 < 5 < < <                 < < 5 5 < < 5 <                                         ",
"                                        & @ @ @ @ @ # @                 % @ @ @ @ @ @ @                                         ",
"                                        O O O O O O O O                 O O O O O O O O                                         "
};
