/* XPM */
static char *_d505c79f7b14156e1e8a50476db644ajJbCKB3AETPzHmIg[] = {
/* columns rows colors chars-per-pixel */
"64 64 198 2 ",
"   c None",
".  c #040C26",
"X  c #070F28",
"o  c #090F27",
"O  c #0B132A",
"+  c #13162B",
"@  c #15192E",
"#  c #1B192E",
"$  c #161429",
"%  c #151A32",
"&  c #1A1D34",
"*  c #221B2E",
"=  c #231E32",
"-  c #1E233C",
";  c #192439",
":  c #2A2335",
">  c #22263F",
",  c #292738",
"<  c #262638",
"1  c #332435",
"2  c #3A2636",
"3  c #3D2937",
"4  c #332E3D",
"5  c #3C2B3B",
"6  c #342538",
"7  c #35303E",
"8  c #452C3A",
"9  c #4A2F3C",
"0  c #4B313E",
"q  c #52333E",
"w  c #1C2B41",
"e  c #242A43",
"r  c #292E4A",
"t  c #252E4C",
"y  c #2B304C",
"u  c #2F3346",
"i  c #343244",
"p  c #39374B",
"a  c #2F3859",
"s  c #313653",
"d  c #353A57",
"f  c #353C5C",
"g  c #3A3F5E",
"h  c #383952",
"j  c #363F60",
"k  c #4C3441",
"l  c #443B46",
"z  c #463948",
"x  c #553541",
"c  c #5A3643",
"v  c #533A44",
"b  c #5B3944",
"n  c #423F5B",
"m  c #633A44",
"M  c #6C3C45",
"N  c #6C3E4A",
"B  c #733F4A",
"V  c #733D47",
"C  c #20485F",
"Z  c #3B405F",
"A  c #314558",
"S  c #3B4060",
"D  c #395769",
"F  c #274C61",
"G  c #3D687C",
"H  c #4B4049",
"J  c #52444D",
"K  c #5A434D",
"L  c #58494F",
"P  c #57494F",
"I  c #42425E",
"U  c #4B445F",
"Y  c #48495B",
"T  c #5C4C51",
"R  c #594B5D",
"E  c #584653",
"W  c #684249",
"Q  c #75444C",
"!  c #7A414B",
"~  c #77494D",
"^  c #664B57",
"/  c #7C4D53",
"(  c #734F5C",
")  c #7F4650",
"_  c #655255",
"`  c #6A5758",
"'  c #6C595A",
"]  c #665458",
"[  c #71535C",
"{  c #7A5C5D",
"}  c #77575B",
"|  c #4A4661",
" . c #5B4A60",
".. c #514E65",
"X. c #455364",
"o. c #555268",
"O. c #555969",
"+. c #674F61",
"@. c #6E5161",
"#. c #665A66",
"$. c #775562",
"%. c #586473",
"&. c #62616E",
"*. c #7D6461",
"=. c #74606B",
"-. c #656574",
";. c #786B77",
":. c #74737D",
">. c #834C4E",
",. c #844953",
"<. c #815154",
"1. c #835559",
"2. c #8B5C5C",
"3. c #8B5559",
"4. c #935555",
"5. c #9A5B5B",
"6. c #945A5A",
"7. c #A55F5B",
"8. c #AD625D",
"9. c #A6615D",
"0. c #B2645D",
"q. c #865A62",
"w. c #885A62",
"e. c #945E63",
"r. c #9B5F61",
"t. c #846765",
"y. c #976967",
"u. c #98786F",
"i. c #97756C",
"p. c #866B70",
"a. c #876E76",
"s. c #8A757B",
"d. c #9B7A71",
"f. c #977778",
"g. c #AC6964",
"h. c #B26B65",
"j. c #BD7B6F",
"k. c #A17C72",
"l. c #CA7E71",
"z. c #A68376",
"x. c #AC8476",
"c. c #AC8779",
"v. c #AE887A",
"b. c #B68779",
"n. c #CC8677",
"m. c #CF927F",
"M. c #DA907D",
"N. c #D28A79",
"B. c #326F85",
"V. c #367187",
"C. c #497587",
"Z. c #7E7582",
"A. c #8C7E85",
"S. c #548394",
"D. c #588C9C",
"F. c #498497",
"G. c #668999",
"H. c #72909A",
"J. c #768892",
"K. c #4991A5",
"L. c #5599AB",
"P. c #599AAB",
"I. c #5194A7",
"U. c #468FA4",
"Y. c #928F9C",
"T. c #99919D",
"R. c #A98981",
"E. c #B08B82",
"W. c #BF988C",
"Q. c #A59696",
"!. c #9A99A2",
"~. c #A79FA6",
"^. c #B5B1BB",
"/. c #C69985",
"(. c #C79A88",
"). c #C89F91",
"_. c #DA9A85",
"`. c #E39A84",
"'. c #D9A28B",
"]. c #DEAA91",
"[. c #D9AC9B",
"{. c #E3AF97",
"}. c #E2A491",
"|. c #F5AD92",
" X c #FAAD91",
".X c #E9B296",
"XX c #EFB89D",
"oX c #EDB79F",
"OX c #F7B799",
"+X c #FFBF9E",
"@X c #DDBCAE",
"#X c #C0A7A5",
"$X c #D5C3BE",
"%X c #FFC4A2",
"&X c #FFC9A5",
"*X c #ECC3B2",
"=X c #C8C1C6",
"-X c #DEC7C1",
/* pixels */
"                                        % @ + + + + + + + + + + + O + O + + + + + + + +                                         ",
"                                        @ @ @ @ + + @ @ + % % + @ @ + % % @ @ + @ % + @                                         ",
"                                        % & & & & % % & & & & & & & & & % & & % % % & &                                         ",
"                                      & w - e - - w e e > > e - e - e - e - e e e e e = &                                       ",
"                                  + % & e r y y y y y y y y y y y y y y t r y y y y r e = % +                                   ",
"                                + % & e r h d d f f h h d d d d d d d d f d d f d d s r e & % @                                 ",
"                                & & = e y d S S j S g g j S j n j n j S n j j S I j f y e & % %                                 ",
"                              & & e e y s f j j S S S S j S S S S j j I j S j I j j g s r t e = -                               ",
"                          @ & - e r y s d g S I j I n j j I j S S j S S I j j j I I g d s y y e - & %                           ",
"                        + % & > r s f g g g g g n j j g g j n g j n g g g g n j j g g g g d s r > & + +                         ",
"                        + + & - r d j I g g g g j j g g g g n j g g g g n j g g g g g j j j d y e & + +                         ",
"                        + + & e r f I j S g g g j n g g g g j g g g g g j g g g g g g I I S d y - & @ +                         ",
"                        + + & w y d I I I g g g j g g g g g g g g g g g g g g g g g g I j j d y e & % O                         ",
"                        + % % e y f j j j g g g n j g g g g g g g g g g g g g g g g j n j I d y - & @ +                         ",
"                        + @ & e r d I j j n g g g g g g g g n j n n j j g j g g g g g j I S d y w & @ +                         ",
"                        + @ & - r d j I j j j n j g g g g g j g j j j n j n g g g g g j j j d y e & + +                         ",
"                        + @ % e r d g j I g g g g n j j j n g g g j g g g j g g g g n j j g d s > & @ +                         ",
"                        + + & e r d g j j g g g j n j n j j g g g n j g g n j g g g j j I g d r - & @ +                         ",
"                        + + & w r d j j I g g g g j g g n g g g g g g g g g g g g g j I j j d r e & @ O                         ",
"                        O O % - r d j | j g g g g g g g j g g g g g g g g g g g g g j I j n d r & % O O                         ",
"                        o O % - r d g I g g g g j g g g j n g g n n j j j g g g g g g I I j d r w + O o                         ",
"                        + + ; > y d j j I g g g n j g g g j g g j j j n n j g g g g g j j g d r e & @ $                         ",
"                        4 7 i u h g g g j g g j g g g g g g g g g g j n g g g g g g g j g g d d y i 4 4                         ",
"                      H L _ ] R U n g g g g g g g g g g g g g g g g g j g g g g g j n g g g I | R ] ] T z                       ",
"                  @ 4 T t.d.d.a.#.| j g f j n n j j g g g g g g g j g g j g g g g g g g f g | #.a.d.u.t.T 4 @                   ",
"                X % 4 ] d./.(.R.p...g f f g j j j n g g g g g g j n g g n j g g g g g g f g ..p.R.(./.d._ 7 @ X                 ",
"                o @ 7 ` x.].{.W.s.o.g f f g g g g g j n g g g g g g g g g g g g g g j f f g o.s.W.{.].x.' 7 % X                 ",
"                X # 7 ' b..XoX).s.o.f f f g g g g g g j g g g g g g g g g g g g g g j a a j o.s.).XX.Xb.' 7 + o                 ",
"                X @ 7 ' b..XoX).s.o.g a f j g g g g g g g g g g g g g g j g g g g g g f f g o.s.).XX.Xv.' 7 # o                 ",
"                X @ 7 ' x.].{.(.s.o.j f f g g g g g g g g g g g g g g g n j g g g g g f f Z o.s.W.{.].c.' 7 @ o                 ",
"                X @ 7 _ d./.(.R.a.#.| g g S j g g j g g g g g g g g g g j j g g j g g g g U #.a.E.(./.u.] 4 @ O                 ",
"                  % 4 T t.u.z.u.t.$.+. .n n j g f j g g g g g g g g g g g f g g f j n U R +.$.t.u.z.u.t.T 4 @                   ",
"                      H P _ ' } 2.w.w.@. .I g g j j f j j n n j g g g f j g f j f f |  .@.q.e.2.} ` _ L l                       ",
"                        , 7 0 W ,.5.r.w.+.U g j f n j j j j j j g g g g j g g g g g | +.q.r.5.<.W l 4 ,                         ",
"                        O @ : 0 Q 4.5.w.(  .U n U U U U n S j n g g n I n U | U | | R [ 1.5.3.W 0 : @ O                         ",
"                        . o $ 1 q W ~ ,.( ^ @.@.@.@.+. .U U S j j g | |  .+.@.@.@.+.( ( ) ~ V q 1 + X .                         ",
"                        . . O # 1 8 q W / 2.w.e.r.e.q.@. .n j j j j |  .$.q.e.e.e.e.3./ W q 8 1 # O X .                         ",
"                        + + @ ; # : 8 b ,.5.g.h.0.8.r.q.+.U j j j j n +.q.r.8.g.h.8.5./ b 5 : & # # + +                         ",
"                        4 7 7 7 u u l T <.5.7.8.8.7.e./ ^ n a a a d n ^ / 6.7.8.0.0.r./ ^ l i u u 7 7 4                         ",
"                      l P _ ` &.#.&.-.=.w.4.5.4.4./ Q N z s y t r r s z W Q ,.4.4.4.6.q.=.&.-.#.#.' _ P l                       ",
"                  o , J *.z.c.Q.!.!.T.A.p.1.! N m c k k e > e - w e e 6 z k x m M ! 1.p.A.T.!.!.Q.c.z.*.J < O                   ",
"                O @ 7 _ i.W.{.@X-X=X^.!.a.^ b 9 2 6 = = = * & & % & & & = = 6 3 9 c ^ a.!.^.=X$X$X[.m.i._ 7 @ o                 ",
"                < 7 H { x.'.XX*X-X-X^.T.;.^ 0 8 1 = = = & * & * & = & = = = = = 3 x ^ ;.T.^.=X-X*X.X'.z.{ H 7 <                 ",
"              l J _ { i.b.M.].[.~.~.Y.Z.#.b 9 8 k 6 k e 1 = = = = = = 1 6 6 k k 8 k v @.Z.T.~.#X[.]._.n.i.{ _ J l               ",
"          @ 4 P *.u.x.n.N.N.n.x.s.:.&. .E x x x c m c c 9 2 2 2 2 2 5 9 x c b c x x k n  .&.;.s.x.n.N.n.b.v.u.*.P 4 @           ",
"        X @ 4 _ d.(.'._.M.l.h.2.^ z p i i q x m B B B N c x 9 8 8 9 x c N B ! B m x k k i p z ^ 6.h.n.M.`.'./.d._ 7 @ o         ",
"        X @ 7 ] z.].OX X`.n.h.<.x : = = 6 9 c M B ,.,.B N m c x c c c N B ,.) B N c k 1 = = : v <.0.n.M.|.OX].z.] 7 @ X         ",
"        X @ 4 ' v..X%X+X XM.j.2.v : $ # 1 9 c m B B ) B B M M V M M V V B ,.B B m c 8 1 * $ = b 2.n.M. X+X%X.Xc.' 4 % X         ",
"        X @ 7 ` c..X%X&X+X|.m.y.L 1 # # 1 0 c c m M M V B B ,.) V ,.! B V M M m m q 0 1 # # 1 K y.m.|.+X&X&X.Xz.` 7 @ o         ",
"        X @ 7 _ z.].%X%X%XOX'.u.T 4 # = 1 0 q x q m m M ! ,.,.,.,.,.,.! N m c q q 0 9 1 = # 4 _ k.'.OX+X&X%X].z._ 7 @ X         ",
"        X % 4 _ u.(.]..X.X]./.i.T 4 # * 1 8 0 z v v E ^ @.$.q.w.e.w.$.[ ^ E J J v 0 8 1 * # 4 L i.m.]..X.X]./.i._ 7 + X         ",
"          + 4 T *.u.z.c.v.z.i.' H , # # * 1 4 l X.X.%.%.-.Z.Z.Z.Z.Z.:.:.%.O.X.Y p 7 1 = # # : H ' i.z.c.c.z.u.*.P 4 @           ",
"              l P _ _ ` ' ` T H 7 < + # # = , A D C.C.D.G.G.G.H.G.G.G.G.D.C.C.D A u < $ # + < 7 H T ] ' ` ] _ P H               ",
"                4 7 7 7 7 7 4 , ; # + + $ ; e A G F.I.L.L.L.L.L.P.P.P.P.L.I.F.G A , & $ + + @ ; > 4 7 7 7 7 7 7                 ",
"                + % + & & + + @ @ @ @ # * : i X.C.D.P.L.I.L.U.U.K.K.K.I.L.P.D.%.D i : * # # @ @ @ @ @ @ @ @ @ %                 ",
"                  X . o . X O O O @ # : 2 0 J ' :.J.H.G.C.C.V.B.B.V.C.C.G.H.H.:.#.L 0 2 : & @ O O O O . . o o                   ",
"                              O O @ < 3 q ~ 1.y.s.z.s.:.%.D F C C F D %.-.R.A.f.y.<.Q q 5 < @ O O                               ",
"                                O @ = 0 W 4.9.h.h.h.y.{ Y u w ; w w u E $.y.g.g.h.9.4.W 9 : @ O                                 ",
"                                O @ , q ~ 4.9.8.9.9.4.~ 0 , + O O % = k ~ 4.9.9.8.9.4.Q 0 : + O                                 ",
"                                  @ : 0 W ~ / >.>./ Q m 8 * $ . . O = 9 m ~ ) >.>.>.~ W 0 < @                                   ",
"                                      7 0 q q q q q q 8 2             2 8 0 q q v v q 0 5                                       ",
"                                        1 , , 1 1 , : :                 : : : 1 : : : :                                         ",
"                                        % @ @ @ @ @ @ @                 @ @ @ @ @ @ @ @                                         ",
"                                        O O O O O O O O                 O O O O O O O O                                         "
};
