/* XPM */
static char *_b4e6e177beb44f5ea2fbf0a42f4e82f8x2iAnaiMWaWiAwD[] = {
/* columns rows colors chars-per-pixel */
"64 64 186 2 ",
"   c None",
".  c #050D27",
"X  c #080F28",
"o  c #0B122A",
"O  c #11162D",
"+  c #161A2F",
"@  c #1A1C31",
"#  c #1F2134",
"$  c #212134",
"%  c #272638",
"&  c #2E2B3B",
"*  c #2A2738",
"=  c #302D3C",
"-  c #35313F",
";  c #363240",
":  c #3B3542",
">  c #3F3945",
",  c #413743",
"<  c #433B46",
"1  c #493D47",
"2  c #473F49",
"3  c #493F49",
"4  c #4C424A",
"5  c #54464D",
"6  c #5A494F",
"7  c #554950",
"8  c #5B4D52",
"9  c #5E5055",
"0  c #634E52",
"q  c #625255",
"w  c #695355",
"e  c #675659",
"r  c #6C5758",
"t  c #6D5B5C",
"y  c #745C5C",
"u  c #785F5E",
"i  c #76605F",
"p  c #7D605E",
"a  c #766261",
"s  c #7B6562",
"d  c #7F6966",
"f  c #E4392E",
"g  c #E53D32",
"h  c #E54136",
"j  c #E64539",
"k  c #E6493D",
"l  c #E84B3E",
"z  c #87625F",
"x  c #8B6661",
"c  c #826864",
"v  c #8C6C67",
"b  c #846C68",
"n  c #8D6E68",
"m  c #836662",
"M  c #996C65",
"N  c #8C726C",
"B  c #92756D",
"V  c #93786F",
"C  c #99786F",
"Z  c #9A776D",
"A  c #8C7670",
"S  c #957A72",
"D  c #9D7D73",
"F  c #A1736A",
"G  c #AC756A",
"H  c #B9796C",
"J  c #A47D72",
"K  c #E64E41",
"L  c #E84E40",
"P  c #E75145",
"I  c #EB5345",
"U  c #E75448",
"Y  c #EB5748",
"T  c #E75A4D",
"R  c #EB5B4B",
"E  c #E85E50",
"W  c #F1604F",
"Q  c #E76255",
"!  c #EA6555",
"~  c #EF6856",
"^  c #EA6C5B",
"/  c #E86659",
"(  c #F16553",
")  c #F06B59",
"_  c #F7725D",
"`  c #F8725D",
"'  c #C67C6C",
"]  c #D27E6D",
"[  c #DB7C6A",
"{  c #E86D60",
"}  c #ED7563",
"|  c #E27A67",
" . c #E97865",
".. c #EA7C6D",
"X. c #E77564",
"o. c #F57661",
"O. c #F87660",
"+. c #F47D69",
"@. c #9B857C",
"#. c #A48377",
"$. c #AD8174",
"%. c #AB8779",
"&. c #AE8A7C",
"*. c #A2887D",
"=. c #B78173",
"-. c #B08C7D",
";. c #BB8E7D",
":. c #C9806F",
">. c #DE816D",
",. c #C08171",
"<. c #C48F7D",
"1. c #CC8E7B",
"2. c #D98673",
"3. c #D38B78",
"4. c #E9836D",
"5. c #F4846E",
"6. c #FC866D",
"7. c #EC8675",
"8. c #E78C76",
"9. c #EC8C7C",
"0. c #FB8C74",
"q. c #F68D78",
"w. c #E4947D",
"e. c #F29178",
"r. c #FE967B",
"t. c #FD987E",
"y. c #AF8D80",
"u. c #AE9689",
"i. c #BB9382",
"p. c #B99A8A",
"a. c #BCA595",
"s. c #C19583",
"d. c #C59A86",
"f. c #CC9B86",
"g. c #C79C89",
"h. c #CB9E89",
"j. c #DC9C85",
"k. c #EC9686",
"l. c #F29B82",
"z. c #F89B84",
"x. c #DCA68E",
"c. c #D0A18C",
"v. c #C9A996",
"b. c #DEAA91",
"n. c #ECA58B",
"m. c #FEA386",
"M. c #FFA588",
"N. c #FDAC8E",
"B. c #EEA392",
"V. c #E2AD92",
"C. c #E9AE92",
"Z. c #EEAD9B",
"A. c #F3AD93",
"S. c #FFAE90",
"D. c #EFB295",
"F. c #EAB79C",
"G. c #F2B496",
"H. c #FDB395",
"J. c #F4B698",
"K. c #F3BA9C",
"L. c #FEBA9D",
"P. c #F9B499",
"I. c #CDB5A2",
"U. c #D7B8A1",
"Y. c #E8B7A1",
"T. c #F5BCA6",
"R. c #DBC4AE",
"E. c #FEC3A4",
"W. c #FECBAC",
"Q. c #F7C3A9",
"!. c #F6CEB5",
"~. c #F1C9B5",
"^. c #E7D0B7",
"/. c #FFD3B4",
"(. c #FDD4B9",
"). c #FDD9BC",
"_. c #E8C5AB",
"`. c #F3DBC3",
"'. c #FDDEC3",
"]. c #F3D7C1",
"[. c #EADBC2",
"{. c #F4E4CC",
"}. c #FAE6CC",
"|. c #F8E3C8",
" X c #F5EBD1",
".X c #EFE3CA",
/* pixels */
"                                      . . . . . . . . . . . . . . . . . . . X . . . . . .                                       ",
"                                    o . X X X X X X o X X X o . . o o . . o X X o o o . X X                                     ",
"                                    O o o O o O O o o O o O O o O O O o o O o o o O O o o O                                     ",
"                                    + + + + + + + + + + + + + + + + + + + + + + + + + + + +                                     ",
"                                    $ $ $ $ $ $ $ $ $ $ $ $ $ $ $ # # # $ # # $ # # # # $ #                                     ",
"                                    & = & = = = - & = = = = = = = = = & - = = = & & = = = =                                     ",
"                                  - , - , , , , < < < < < < < < 4 - 4 > < 4 4 - 4 > > > > - -                                   ",
"                                = , 1 1 5 6 6 6 6 6 6 9 6 9 6 9 9 9 8 8 8 8 9 9 8 8 7 7 4 4 < -                                 ",
"                              * - 1 5 0 0 r r i y y i p i i i i i i i i i i i i i t t e 9 8 4 - &                               ",
"                          O # = , 4 0 r p z v v n B B B B B B B B B V V N @.V V N N N i t q 5 > = # O                           ",
"                        X + $ = 4 6 r p n Z #.#.$.&.%.%.&.%.%.&.-.-.-.-.-.-.&.&.#.#.@.N p t 6 1 - $ + X                         ",
"                      . O @ * - 4 q i n #.$.;.<.<.f.f.h.g.g.g.g.p.g.g.g.h.h.h.d.d.;.%.#.N i q 4 : % @ O .                       ",
"                    X O + # * , 5 e c C -.;.c.x.V.V.V.C.V.b.b.b.b.b.V.V.V.V.V.V.x.h.d.&.#.p w 5 > & # O O X                     ",
"                  O + + # * : 3 9 i N #.i.c.V.F.K.K.K.K.J.J.G.D.D.D.G.G.G.J.G.G.C.b.1.;.#.N i 0 4 - * $ + + O                   ",
"                  @ $ * * ; < 7 t d @.-.h.U.K.K.E.E.W.E.L.L.P.P.H.H.H.H.H.H.H.H.A.n.w.<.$.M p w 5 , - & % # #                   ",
"                * = = : < 3 7 e i N @.p.v.F._.W.W.W.W.E.T.L.H.S.N.N.N.S.H.S.H.N.N.n.c.1.=.M z i 0 5 1 < : - = &                 ",
"              = - , 1 4 5 8 e i A @.u.a.U._././.(./.W.E.L.H.S.M.t.t.t.t.t.t.N.t.t.e.w.3.:.G M z y w 6 6 4 4 > : -               ",
"            - , 1 5 6 0 r i d A @.u.a.I.R.^.).).(.(.W.T.L.S.M.z.t.t.t.6.t.r.r.r.t.e.8.2.:.H G M z z y r q 8 5 4 > -             ",
"  X o + $ * : 1 5 0 w i z b #.@.u.a.I.R.^.[.|.|.'.(.T.T.H.M.z.0.r.0.6.6.0.6.6.6.5.4.4.>.:.:.H G Z M v m a t 9 7 4 : & # + O o   ",
". o O + $ * , 3 8 r p x #.#.%.p.a.I.R.^.[.|.}.|.'.].W.T.N.z.0.+.5.5._ _ ` 6._ ` _ 4.X.| [ [ :.=.=.$.J Z N d t 9 4 : & # + o . . ",
". X O + $ = , 5 q i n #.&.;.g.v.U.R.^.[..X X X|.{.].T.P.z.z.+.} ( ( W W ( ( ( ( ~ ^ ^  .| >.2.3.1.<.;.&.J N s e 5 > & $ + O o . ",
". X o + $ = , 5 r z #.$.;.c.U.F._.^.)..X X X X X].].T.B.k...} / R I I I l l l R R W ! ^  .4.8.w.j.j.f.s.-.D b t 7 < & $ + o . . ",
". X o + $ = , 6 i z #.;.c.V.F._.!.).'.}. X X X.X].T.T.B.k.} / T I l l j j j l l l R E ~ } 5.e.t.n.n.x.h.;.#.N t 8 < & $ + O X . ",
". X O + $ = < 6 i n #.<.b.F.Q.W./.).|.}.}.{.|.`.].T.Z.k.7.} Q U l j h g h h j k l l R ~ 4.5.t.M.M.G.C.x.d.%.N a 8 < - $ + o X . ",
"X X o + $ = , 6 p n $.f.V.K.E.W./.).'.'.`.`.].].T.Y.B.k...{ T P l j h f f f h h j l Y ( ` 0.r.t.S.H.G.V.d.&.V a 9 < - # + o X . ",
". X O + $ & < 6 i B %.f.C.K.E.W././.)./.(.(.~.T.Y.Z.k...../ T P j h f f f f f h j l Y ( ` 6.t.M.H.H.G.V.g.-.V a 9 < & $ + o o . ",
". X o + $ = 4 6 i B %.f.V.K.E.W.W.W.W.W.T.T.T.Z.B.k.k...{ E P P j h f f f f f h j l I ( 6.6.r.M.S.H.K.V.g.-.V a 8 < & # + O X . ",
". X O + $ = < 8 i B &.f.V.J.E.E.E.E.T.L.P.B.B.k.k.7...{ Q T P k j h f f f f f h j l Y ( ` 6.r.M.N.L.K.V.h.-.V a 9 > - # + o X . ",
". X o + # & < 8 p B %.h.V.K.L.L.L.L.H.N.z.k.9.7...X.{ / T U P j h h h f f f h h j l Y ( _ 6.r.M.H.H.J.V.g.-.V a 9 < - $ + o o . ",
"X X O + $ = < 8 i B %.f.V.G.L.L.H.N.M.z.q.7...} { / E T U P k k h h h f h f h h k l Y ~ _ 6.t.m.N.H.G.V.d.-.V a 8 < = $ + O . . ",
". X O + $ = < 8 i B %.g.b.D.J.H.S.m.t.0.+.} ^ ! T T U P K K k j j h h h h h h h k l Y ~ 5.6.r.m.N.H.D.b.d.-.V i 8 4 & $ + O o . ",
". X O + $ = < 6 i N %.d.b.D.H.H.M.m.0.5.o./ E U P K K k j k j j j j h h h h h h k l R ~ _ 6.t.t.N.H.D.b.d.&.B i 7 > & # + O . . ",
". o o + # = 2 8 t @.-.<.b.C.H.S.t.r.6._ _ W l l j h h h h j h h j j h h h h h h l l R ( 5.6.t.t.L.H.G.w.<.-.@.t 8 < = # + o o o ",
". o O + # = < 8 i @.-.v.b.D.H.S.N.r.6.5.( W l j h h h h h h h h j h h h h h h h j I R ( _ 6.t.t.H.H.G.U.<.&.@.t 8 < = # + o o o ",
". o O + # = < 8 i @.-.<.b.G.H.S.t.t.6.` W l j h h h h f h h h h h h h h h h h h j l R ( 5.6.0.t.H.H.G.V.<.-.@.i 8 < = # + o o . ",
". X o @ # = 2 8 w @.-.<.b.J.H.S.t.r.6.` ( l h h f f f f f h h h h h h h f f h h j l I ( ` 6.r.t.H.J.G.V.<.#.@.t 8 2 = # + o o . ",
". X o + # = 2 8 y v %.<.V.J.H.S.N.t.6.6.W l l h f f f f h f h h h h g g h h f h j l I ( 6.6.r.H.S.H.J.V.<.-.@.w q < = $ + o o o ",
". X o + # = < 8 i @.;.<.V.J.H.H.t.t.6.` W R l h h f f f f f h h h h g g f f f h j l I ( 5.0.r.t.H.H.K.V.<.-.@.a 8 2 = # + o o . ",
". o O + # = < 8 t @.-.v.V.J.H.H.t.r.6.` ( l j h h f f f h h h h h h h g g g f h j l I W ` 6.t.S.H.H.J.F.v.-.@.a 8 < = # @ o o . ",
". o o + # = < 8 i @.-.<.V.G.H.H.t.0.6._ ~ l l h h f h h h h j j h h h h g g g j l l R W ` 6.t.t.S.H.G.w.<.;.@.a 8 2 = # + o . . ",
". X o @ # = < 8 t @.#.<.x.C.G.t.t.t.6.5.W R l l l j j j j j l l k l k j h j j l l I R ( _ 5.r.t.t.D.F.b.<.#.@.a 8 < = # + o o o ",
"X X o + # - < 8 w @.#.-.<.b.C.C.w.t.4._ ( R R l l l l l l l l l l l l l l l l l I I W ~ ) 4.e.e.n.C.x.c.;.#.d a 7 < = # + o o . ",
". X o + # & < 7 t b #.%.<.1.b.w.w.8.4.4.^ ! E R Y Y Y l Y R R R R R R R I R I I R R ! 4.4.4.8.8.w.x.<.<.-.@.d t 7 < & # + o . . ",
". X o @ # & , 7 q i N #.-.;.<.1.1.w.>.>.>.^ ^ ^ ( ( ( W ( ( ( ( ( ( ( ( ( ( W R ~ ! ^ ^ >.>.2.2.1.;.;.%.#.N s e 5 < & # + o o . ",
". o O @ # & , 4 q t d N Z #.$.,.,.:.:.| >.^ 5._ 6._ _ 6._ _ _ 5.4._ 6.5.` ` 6.5.4.4.4.>.>.:.:.,.=.$.#.Z A s t 9 4 > = % + o o . ",
"  o O # # & : 2 5 q t a z x M F G ' ' :.>.4.4.5.6.0.6.6.0.6.5.6.6.6.6.6.6.6.6.0.5.5.4.>.>.' ' G #.M v p a t q 7 2 ; = % + o o   ",
"            - < 2 5 8 q w y z z x G ,.:.2.w.0.e.t.t.r.r.r.r.t.r.r.t.r.t.r.t.t.r.6.e.8.2.:.H M M z p y r 9 8 7 4 > ;             ",
"              - : < 1 4 5 8 0 y z M $.=.3.w.t.t.t.N.t.N.N.t.M.t.t.t.t.S.t.t.t.H.t.t.w.1.,.G M z y w 8 5 4 < > > :               ",
"                = = - - > 4 5 0 y z F =.1.w.n.M.N.H.S.S.S.S.S.N.N.N.N.H.H.H.S.N.M.n.k.1.=.F z y 0 6 1 , - - & &                 ",
"                  # # % = - , 6 w p M $.<.c.n.A.H.H.H.H.J.H.H.H.H.H.H.H.H.H.H.J.D.n.c.<.$.Z p w 6 , - & % % #                   ",
"                  + + @ $ * - 4 8 i v #.;.c.V.C.G.K.J.J.G.D.D.D.D.D.G.G.J.J.G.G.C.x.f.;.J v y 6 1 - * $ @ O +                   ",
"                    o o + $ = - 7 e z V &.<.f.x.V.V.V.C.V.V.b.b.b.b.V.V.V.C.V.V.x.c.s.%.C z w 5 , & $ + o o                     ",
"                      . o @ % - 4 9 i n #.%.;.d.d.f.h.h.h.g.d.d.d.d.d.h.g.h.h.d.<.;.-.@.N i 9 4 - * + O .                       ",
"                        o + $ - 4 8 t d n @.#.*.-.-.&.&.-.&.&.&.&.&.-.-.&.&.-.-.%.#.#.N d t 9 4 - $ + o                         ",
"                          O $ & > 5 e t i b N N A A @.B V @.N N A V A V @.B V A N N d i t 9 7 > = $ O                           ",
"                              = : 4 7 9 e t i i i i i i i i i i i i i i i i i i i i t e 9 7 4 : &                               ",
"                                : > 4 4 7 7 7 7 8 8 8 7 8 8 8 8 9 8 8 8 8 8 8 8 7 8 7 5 4 4 > :                                 ",
"                                  - : : > > > 4 < > 4 4 4 > 4 < > 4 > 4 4 > > 4 > 4 < > > - -                                   ",
"                                    & & & & & - = = = = & & = = & = = = = = & = - & & & & &                                     ",
"                                    # # # $ $ $ # # # # # # # # # # # $ $ # # # $ $ $ # # #                                     ",
"                                    + + + + + + + + + + + + + + + + + + + + + + + + + + + +                                     ",
"                                    O O o O o o o O o O O o o O o O o o o O O o o O O o O O                                     ",
"                                    . . o o o . o . o o o . . o o o o . . o o o X X X o . .                                     ",
"                                      . . . . . . . . . . . . . . . . . . . . . . . . . .                                       "
};
