/* XPM */
static char *_fbc9cf419694922f32919a641edd50bI0tal20XlS6lw3n3[] = {
/* columns rows colors chars-per-pixel */
"64 64 94 2 ",
"   c None",
".  c #120E1D",
"X  c #15101F",
"o  c #161121",
"O  c #181425",
"+  c #1A1628",
"@  c #1C1A2D",
"#  c #1F1C31",
"$  c #211E32",
"%  c #242236",
"&  c #24243C",
"*  c #28273E",
"=  c #29283F",
"-  c #262640",
";  c #282740",
":  c #272842",
">  c #2C2C44",
",  c #2C2E4B",
"<  c #302F48",
"1  c #2E314F",
"2  c #32324B",
"3  c #39384E",
"4  c #2E3151",
"5  c #333654",
"6  c #3A3A54",
"7  c #323759",
"8  c #34395B",
"9  c #3C3D5B",
"0  c #373D62",
"q  c #383F64",
"w  c #413F53",
"e  c #3E405E",
"r  c #3A4065",
"t  c #3D456D",
"y  c #3E4770",
"u  c #3F4872",
"i  c #424054",
"p  c #40415F",
"a  c #434564",
"s  c #464866",
"d  c #41476C",
"f  c #4B4D6D",
"g  c #414A74",
"h  c #4B4F72",
"j  c #464F79",
"k  c #4D5072",
"l  c #4B537D",
"z  c #545670",
"x  c #5C5D75",
"c  c #50557A",
"v  c #565A7C",
"b  c #585C7E",
"n  c #63647A",
"m  c #4E5681",
"M  c #4F5883",
"N  c #565C84",
"B  c #595D81",
"V  c #565E88",
"C  c #5D6286",
"Z  c #5B638D",
"A  c #5F6791",
"S  c #65698B",
"D  c #696D8F",
"F  c #606791",
"G  c #646B94",
"H  c #6A6E91",
"J  c #676E98",
"K  c #686F99",
"L  c #6C7195",
"P  c #6A719B",
"I  c #717594",
"U  c #7B7E9A",
"Y  c #767DA3",
"T  c #797FA3",
"R  c #7B80A5",
"E  c #7C83A9",
"W  c #83859F",
"Q  c #8587A0",
"!  c #8688A1",
"~  c #8187AA",
"^  c #858AAD",
"/  c #898EAF",
"(  c #888EB1",
")  c #8D93B4",
"_  c #9297B6",
"`  c #9499B7",
"'  c #959AB9",
"]  c #9A9EBC",
"[  c #9DA1BE",
"{  c #9EA3C0",
"}  c #A3A7C2",
"|  c #A5A9C3",
" . c #A8ACC7",
".. c #A8ACC8",
/* pixels */
"                                  X . X . . . . . . . . X . . . . . X . . . . . X X . X X X X                                   ",
"                                  O O O O O O O O O o X O + X O X X + + X O X X X X X + + X +                                   ",
"                                  $ $ $ % % % % % % % % % % % % % % % % = % % % % % $ $ $ $ $                                   ",
"                                % = > 1 2 3 3 i i i i i i i i i i i i i i i i i i i 3 3 < = = %                                 ",
"                              @ * 2 9 a f z x n n n n n n n n n n n n n n n n n n x z s a e 2 * @                               ",
"                          . O $ , e k B S L U W ! ! W W W W W W Q Q Q Q ! ! ! ! R R I S C k e 1 % + .                           ",
"                          + # * 3 f C L R / ) ] } [ [ [ } [ [ [ [ [ [ [ [ [ | [ [ ) ^ R L C f 3 & @ +                           ",
"                        $ % > 2 a v L R ) ` { |  . . .|  . .|  .| |  .| |  . . .| { ' ( R H x r 3 = % %                         ",
"                      $ = 2 9 s v S R / ` { }  ... . . . . . . . . . . .| |  . . .| [ [ / R D x s 9 2 = $                       ",
"                  . O % < 9 h B H T / ` { { } |  .|  .| | | | | | | | | | | |  .| | [ [ ' / R D B h 9 < $ O .                   ",
"                  O # = 6 f C L R ) ` [ | } } } | | } } | | } } } } | | } } } } } } } } [ ' / R P C f 6 > @ O                   ",
"                $ $ = 2 s b L E ( ` [ } | | | } } } } } } } } } } | | | | } } } } | } } } [ ` / E L b s 2 = $ #                 ",
"              $ ; < 6 s v D T ( ` ] } } | | | } } } } } } } } | } } } } } } } } } |  .| } } [ ` / T D v s 6 < * $               ",
"          . + % < 9 f B D T / ` ] } } } | | } } } } } } } } } } } } } } } } } } } } } | } } [ [ ` ( U D b k e 2 % + .           ",
"          O # = 9 h S H T / ` [ } } } } } } } } } } } } } } | } } } } } } | } } } } } } } } } } [ ` ( E L C k 9 > @ o           ",
"        # $ = 5 s B P T ( ' [ | } | } } } } } } } | } } } } } } } } } | } } } } } } } } } } } | } [ ` / E L B s 2 = % @         ",
"      % = < 6 s v D R ) ` [ } | | | | } } } } } } } } } } } } } } } } } } } } } | } } } } | | | | } ] ' ( R H v s 6 < = $       ",
". + $ = 3 p f b D R / ` ] { { | | | } } } } } | | } } } } } } } } } } } } } } } } } } } } } | | } } } ] ' ( T H v f a 2 > # O . ",
". O $ > w h B H Y ( ' { { } { } | } } } } } } } } } } } } } } } } } } } } } } | } } } } } } } | } } } { ] ' ( Y L B k 9 > $ O . ",
"X O $ < d v J T ^ ' [ } | | | | } } } } } } } } } } } } } | } } } } | } } } } } } } } } } } } } } } } } } { ' ( T H N a < $ O X ",
". O $ , a B K E ) ] { | | | } } } } } } } } | } } } } } } } } } } } } } } } } } } } } } } } } } } } | .. .} ] ( E P B a < $ O . ",
". O $ < a N P ~ ) ] } .. .| | } } } } } } } } } } } | } } } } | | } } } } } } } } } | } } } } } } | | | | } ] ) E P V a < $ O X ",
". + $ < a N K E ) ` [ | | | } } } } | } } } } } } } } } } } } } } } } } } } } } } } } } | } } } } } |  .| } ` ) R P B a < $ O . ",
". O $ > p v J Y ^ _ [ } } | } } | } } } } } } } } } } | } } } } } } } } | } } } } } } } } } } } } } } } } ] _ ^ Y H v p > $ O X ",
". O $ > 9 c F P E / ` ] [ } } | | } } } } } } } } } } } } } } } } } } } } } } } } } } } } } | } | } { { ] _ ^ E P A l e > % O . ",
"X + # > 7 h N G P E ^ _ ' [ } | | | } } } } } | } } } } } | } } } } } } } } } } } } } } } } | | | | [ ' ) ^ E Y G V f 8 = @ O X ",
". O @ = 5 t l V G P T ~ ) ' [ | | | } } } } } } } } } } } } } } } } } } } } } } } } } } } | | | | [ ] ) E R P A C l t 5 ; @ O X ",
"o O @ & 1 q j m V G P Y ^ _ [ { } | } } } } } } } } } } } } } } } | } } } | } } } } | } } } | } { [ ) ^ R P A V m g r 1 * @ O X ",
"o O @ & , 0 y j M V F P R ^ ` [ } } } } } } } } } } } | } } } } } | } } } } } } [ | | } } [ [ [ [ ` ^ R K A Z m j u 0 , & @ O o ",
"o O @ & , 0 y j l M V Z P R ^ ) ` [ } } } } } } } | } } } } } } } } } } } } } } | | | | | | [ [ ) ^ R P A V m m j y 0 , & @ O o ",
"o O @ & 1 0 y j j j m V G L T ^ ) ' } } | | | } } } } } } } } | } } } } } | } } | | | | } { ' ) ~ Y P A V m m j u u 0 , & @ O o ",
"o O @ & 1 0 y u g j j m V F P Y ~ _ ] } | | } } } } } } } } } } } } } } } } } } [ | | | | [ ) ~ R P A C m j u j u u 0 1 & @ O o ",
"X O @ - 1 0 u g g g g j m V F J T ^ _ ] [ } } } } } } } } } } } } } } } } } | } } } } } ] _ ^ T P A V l j j u u u u 0 4 & @ O o ",
"X O @ & 1 0 y u g g g g j m V A P T / _ ] [ } } | | | } | | } | | | } | | | | | } } ] ' _ ^ R P G V m l j u u u u u 0 4 & @ O o ",
"o O @ & 1 0 y u g g g g j j m V G P T ^ ) ' [ } | | ..| | | | | | | | | | | | | } [ ` ) ^ T P S V m j j u u u u u y 0 4 & @ O o ",
"o O @ & 1 0 u g g g g g g g j m V S K Y ~ _ ' } | | } | | } } } } | | } | | | | } ] _ ^ Y P F N l j g g j u u u j y 0 4 & @ O o ",
"o O # & 4 0 u g g g g g u u g j m V F K T ( _ ] { { { { { { { { [ [ [ [ [ } [ [ ] _ ^ T P F V m j g g u g u u j u y 0 1 & @ O o ",
"o O @ & 4 q y g g g g u u u u g j m V F P T / _ ' ' ` ` ' ' ) _ ` ` ` ` ` ` ` ` _ ^ T P F V m j g g y u u g u j u y 0 1 & @ O o ",
"X O @ & 4 q u g g g u g u u u g j l m V F P Y ^ ^ ^ ^ ^ ^ ^ ( E ^ ^ ~ ^ ^ ^ ! / ~ T P F V m j j g y y y g g g g u u r 1 & @ O o ",
"o O @ & 4 q q g g g u g u u g u g g j m N G K Y Y Y Y Y Y Y Y Y Y Y Y Y Y U R R Y P G N m j g j g g g y g y g g u u 0 4 & @ O o ",
"o + @ & , 0 u u g g g g g u u g d g g j m V G J P P P P P P K P P P P P P P P P P G Z m j u u u u u u u u u j u u u 0 4 & @ O o ",
"X O @ & 4 0 u u g g g g u g g u g d g g m V F G K K P K K K J J G J J P J P P P G A N l j u u u u j u u j u u u u u 0 4 & @ O o ",
"X O @ & 4 q u j g g g u g u g g u u u g m M A G K J K J K J J J J J J J J J J J G A N j u u y u u u j u u u u j j u r 4 & @ O o ",
"o + @ - 4 q y j g g u g u g u g u u u g l V A G K K K K K J J J J J J J J J J J G A V m j u y u j u u u u u u j j u r 4 & @ O o ",
"o O @ - 4 0 y y g g g u u g g u y y g g m V A G K K P K K K K K J J J P J P P P G A V l j y u u u u u j u j u u u y 0 1 & @ O o ",
"o O @ - , 7 0 t y g g g g g y g g g g j l V F G P K K K K K K K P J J P P J J P J A V l j u u u u u u u u u u u t 0 7 , & @ O o ",
". + # # : 1 4 0 0 q g g g g y g y u g g m V F G K P P K K K K K J J J J J P J P G A V m j u u u u j u j u u y q 7 4 1 : % # O o ",
"      # # & : , 0 q u g g g g g u u g g m V F J K P K K K K K K J P P J J P P J J A V m g u u u u u u u u u r 7 4 : & % #       ",
"        @ @ # - 1 0 y u j u u u u u u u m V A J J P K J K K K K K K K K K K K P G A V m j u u u u j u u u y 0 4 - # # @         ",
"          O @ & : 7 0 t y y g u u u u m m V A G P K P K K K K K K K K K K P K K G A V j j j u u u u u u y 0 7 : $ @ +           ",
"          o + # - 1 7 0 q t u g u u u u m V A J K P K K K K K K K K K K K P K P J A V m j y u u u y y t 0 7 , : # @ o           ",
"              # $ - : 1 8 q y g j u u j m M A G K K P K K K K K K K K K K K K P G A V m j u u u u y q 7 4 : - # #               ",
"                @ # # : 1 0 t u u u u j m V A J P K P P K K K K K K K K P P P K J A V m j y u u u u 0 , : # # @                 ",
"                  + # # : 8 0 t y y u j m V A J K P P P K K K K K K K K P P K P J A V m j y y y y r 7 : # @ +                   ",
"                  X + # - , 8 0 q t u j m V F J P P P P P P P P P P P P P P P P K A V m j y t q 0 7 , : # + .                   ",
"                      @ # - , , 7 0 y j m V G K P P P P P P P P P P P P P P P P K G V m j y 0 7 , , : # #                       ",
"                        # # & - , 8 t j m V G J Y K K K K K K K P P K K P P P P J G V m j t 8 , * & # @                         ",
"                          + @ # : 7 0 y l V Z F G J J G J G J G J J G G G J J J G Z N l y 0 4 - # @ +                           ",
"                          . O @ & : 7 q t h l v N B B B B B B B M V N N B B N B v c h d q 7 , & # O X                           ",
"                              @ & - , 4 5 9 a a p a a a a p a a q d a a a a a a a r 9 5 4 , - & +                               ",
"                                $ $ & & ; ; > < < < < < < < < < < < < < < < < < , > > = & & & #                                 ",
"                                  @ # @ $ # $ $ $ $ $ $ $ $ $ $ $ $ $ $ $ $ $ $ # $ $ @ @ @ @                                   ",
"                                  O O O O O O O O O O O O O O O O O O O O O O O O O O O O O O                                   ",
"                                  o o X X . X X X . . X . o . . . . X . . X . . X . o . o X o                                   "
};
